<svg width="3420" height="1306" viewBox="0 0 3420 1306" fill="none" xmlns="http://www.w3.org/2000/svg">
<g clip-path="url(#clip0_308_32)" filter="url(#filter0_d_308_32)">
<rect width="2880" height="766" transform="translate(270 259)" fill="#F1F1F1"/>
<g opacity="0.62">
<path opacity="0.14" d="M729.777 787.943C362.344 655.956 283.49 414.809 289.993 310.734C289.993 258.696 276.16 146.46 220.831 113.819C151.67 73.0164 -2.60643 475.717 -16.793 502.327C-30.9796 528.937 -62.8994 1190.64 -45.1662 1355.63C-27.433 1520.61 428.311 1653.66 506.337 1653.66C584.364 1653.66 1299.01 1502.87 1284.83 1387.56C1270.64 1272.25 1189.07 952.926 729.777 787.943Z" fill="url(#paint0_linear_308_32)" stroke="url(#paint1_linear_308_32)" stroke-width="1.07209"/>
<path opacity="0.33" d="M818.626 742.172C451.193 610.186 372.34 369.039 378.842 264.963C378.842 212.926 365.01 100.69 309.681 68.0482C240.519 27.2459 86.2427 429.946 72.0561 456.557C57.8695 483.167 25.9497 1144.87 43.6829 1309.86C61.4162 1474.84 517.16 1607.89 595.186 1607.89C673.213 1607.89 1387.86 1457.1 1373.68 1341.79C1359.49 1226.48 1277.92 907.155 818.626 742.172Z" fill="url(#paint2_linear_308_32)" stroke="url(#paint3_linear_308_32)" stroke-width="1.07209"/>
</g>
<g opacity="0.82">
<g filter="url(#filter1_d_308_32)">
<path d="M2848.43 1139.83L3342.49 646.024L2848.43 146.665V410.215L3031.62 593.314" stroke="url(#paint4_linear_308_32)" stroke-width="9.70627"/>
</g>
<g filter="url(#filter2_d_308_32)">
<path d="M2801.67 1233.11L2206.78 645.782L2801.67 50.888" stroke="url(#paint5_linear_308_32)" stroke-width="9.70627"/>
</g>
<path d="M2383.23 640.735L2796.63 227.335V426.473L2582.37 640.735L2796.63 849.956L2988.21 640.735L3096.6 751.648L2796.63 1054.14L2383.23 640.735Z" fill="url(#paint6_linear_308_32)" stroke="url(#paint7_linear_308_32)" stroke-width="0.970627"/>
</g>
<path d="M463.749 664.229H387.159V567.629H463.749V586.949H411.999V605.579H452.709V624.899H411.999V644.909H463.749V664.229ZM532.717 567.629C543.113 567.629 550.979 570.343 556.315 575.771C561.743 581.107 564.457 588.973 564.457 599.369V632.489C564.457 642.885 561.743 650.797 556.315 656.225C550.979 661.561 543.113 664.229 532.717 664.229H478.897V567.629H532.717ZM539.617 599.369C539.617 591.089 535.477 586.949 527.197 586.949H503.737V644.909H527.197C535.477 644.909 539.617 640.769 539.617 632.489V599.369ZM652.739 567.629L669.299 629.729L683.789 567.629H710.699L684.479 664.229H658.259L641.699 604.199L625.139 664.229H598.919L572.699 567.629H599.609L614.099 629.729L630.659 567.629H652.739ZM732.18 664.229H705.27L741.84 567.629H769.44L806.01 664.229H779.1L772.89 646.979H738.39L732.18 664.229ZM744.6 629.039H766.68L755.64 596.609L744.6 629.039ZM817.045 567.629H875.005C884.665 567.629 891.657 569.837 895.981 574.253C900.397 578.577 902.605 585.569 902.605 595.229V607.649C902.605 615.285 901.317 621.219 898.741 625.451C896.257 629.683 892.255 632.489 886.735 633.869L903.985 664.229H877.075L861.205 635.249H841.885V664.229H817.045V567.629ZM877.765 595.229C877.765 589.709 875.005 586.949 869.485 586.949H841.885V615.929H869.485C875.005 615.929 877.765 613.169 877.765 607.649V595.229ZM974.327 567.629C984.723 567.629 992.589 570.343 997.925 575.771C1003.35 581.107 1006.07 588.973 1006.07 599.369V632.489C1006.07 642.885 1003.35 650.797 997.925 656.225C992.589 661.561 984.723 664.229 974.327 664.229H920.507V567.629H974.327ZM981.227 599.369C981.227 591.089 977.087 586.949 968.807 586.949H945.347V644.909H968.807C977.087 644.909 981.227 640.769 981.227 632.489V599.369Z" fill="#39383E"/>
<path d="M1094.32 664.229H1069.48V567.629H1146.07V586.949H1094.32V609.719H1135.03V629.039H1094.32V664.229ZM1236.46 664.229H1159.87V567.629H1236.46V586.949H1184.71V605.579H1225.42V624.899H1184.71V644.909H1236.46V664.229ZM1251.61 567.629H1309.57C1319.23 567.629 1326.22 569.837 1330.55 574.253C1334.96 578.577 1337.17 585.569 1337.17 595.229V607.649C1337.17 615.285 1335.88 621.219 1333.31 625.451C1330.82 629.683 1326.82 632.489 1321.3 633.869L1338.55 664.229H1311.64L1295.77 635.249H1276.45V664.229H1251.61V567.629ZM1312.33 595.229C1312.33 589.709 1309.57 586.949 1304.05 586.949H1276.45V615.929H1304.05C1309.57 615.929 1312.33 613.169 1312.33 607.649V595.229ZM1439.25 664.229H1413.03L1379.91 606.269V664.229H1355.07V567.629H1381.29L1414.41 625.589V567.629H1439.25V664.229ZM1477.27 664.229H1450.36L1486.93 567.629H1514.53L1551.1 664.229H1524.19L1517.98 646.979H1483.48L1477.27 664.229ZM1489.69 629.039H1511.77L1500.73 596.609L1489.69 629.039ZM1646.31 664.229H1620.09L1586.97 606.269V664.229H1562.13V567.629H1588.35L1621.47 625.589V567.629H1646.31V664.229ZM1720.9 567.629C1731.29 567.629 1739.16 570.343 1744.49 575.771C1749.92 581.107 1752.64 588.973 1752.64 599.369V632.489C1752.64 642.885 1749.92 650.797 1744.49 656.225C1739.16 661.561 1731.29 664.229 1720.9 664.229H1667.08V567.629H1720.9ZM1727.8 599.369C1727.8 591.089 1723.66 586.949 1715.38 586.949H1691.92V644.909H1715.38C1723.66 644.909 1727.8 640.769 1727.8 632.489V599.369ZM1847.13 664.229H1770.54V567.629H1847.13V586.949H1795.38V605.579H1836.09V624.899H1795.38V644.909H1847.13V664.229ZM1935.42 586.949L1887.12 644.909H1935.42V664.229H1856.76V644.909L1905.06 586.949H1856.76V567.629H1935.42V586.949Z" fill="#338EE7"/>
<path d="M401.016 719.968V723.446H386.775V734.491H398.337V737.969H386.775V752.727H382.498V719.968H401.016ZM440.539 726.971V752.727H436.262V748.92C435.447 750.236 434.303 751.27 432.831 752.022C431.389 752.742 429.791 753.103 428.037 753.103C426.031 753.103 424.229 752.695 422.631 751.881C421.033 751.035 419.764 749.781 418.824 748.121C417.916 746.46 417.461 744.439 417.461 742.058V726.971H421.691V741.494C421.691 744.032 422.334 745.99 423.618 747.369C424.903 748.716 426.658 749.39 428.883 749.39C431.17 749.39 432.971 748.685 434.287 747.275C435.604 745.865 436.262 743.812 436.262 741.118V726.971H440.539ZM463.552 717.947V752.727H459.275V717.947H463.552ZM486.633 717.947V752.727H482.356V717.947H486.633ZM514.556 753.15C512.582 753.15 510.811 752.821 509.245 752.163C507.678 751.473 506.44 750.533 505.532 749.343C504.623 748.121 504.122 746.726 504.028 745.16H508.446C508.571 746.444 509.166 747.494 510.232 748.309C511.328 749.123 512.754 749.531 514.509 749.531C516.138 749.531 517.423 749.17 518.363 748.45C519.303 747.729 519.773 746.82 519.773 745.724C519.773 744.596 519.271 743.765 518.269 743.233C517.266 742.669 515.715 742.12 513.616 741.588C511.704 741.086 510.138 740.585 508.916 740.084C507.725 739.551 506.691 738.783 505.814 737.781C504.968 736.747 504.545 735.399 504.545 733.739C504.545 732.423 504.936 731.216 505.72 730.12C506.503 729.023 507.615 728.161 509.057 727.535C510.498 726.877 512.143 726.548 513.992 726.548C516.843 726.548 519.146 727.268 520.901 728.71C522.655 730.151 523.595 732.125 523.721 734.632H519.444C519.35 733.284 518.801 732.203 517.799 731.389C516.827 730.574 515.511 730.167 513.851 730.167C512.315 730.167 511.093 730.496 510.185 731.154C509.276 731.812 508.822 732.673 508.822 733.739C508.822 734.585 509.088 735.29 509.621 735.854C510.185 736.386 510.874 736.825 511.689 737.17C512.535 737.483 513.694 737.843 515.167 738.251C517.015 738.752 518.519 739.253 519.679 739.755C520.838 740.225 521.825 740.945 522.64 741.917C523.486 742.888 523.924 744.157 523.956 745.724C523.956 747.134 523.564 748.403 522.781 749.531C521.997 750.659 520.885 751.552 519.444 752.21C518.034 752.836 516.404 753.15 514.556 753.15ZM546.725 730.496V745.677C546.725 746.93 546.992 747.823 547.524 748.356C548.057 748.857 548.981 749.108 550.297 749.108H553.446V752.727H549.592C547.211 752.727 545.425 752.178 544.234 751.082C543.044 749.985 542.448 748.183 542.448 745.677V730.496H539.111V726.971H542.448V720.485H546.725V726.971H553.446V730.496H546.725ZM568.546 739.755C568.546 737.123 569.078 734.82 570.144 732.846C571.209 730.84 572.666 729.289 574.515 728.193C576.395 727.096 578.478 726.548 580.766 726.548C583.022 726.548 584.98 727.033 586.641 728.005C588.301 728.976 589.539 730.198 590.354 731.671V726.971H594.678V752.727H590.354V747.933C589.508 749.437 588.239 750.69 586.547 751.693C584.886 752.664 582.943 753.15 580.719 753.15C578.431 753.15 576.363 752.586 574.515 751.458C572.666 750.33 571.209 748.747 570.144 746.711C569.078 744.674 568.546 742.355 568.546 739.755ZM590.354 739.802C590.354 737.859 589.962 736.167 589.179 734.726C588.395 733.284 587.33 732.188 585.983 731.436C584.667 730.652 583.21 730.261 581.612 730.261C580.014 730.261 578.557 730.637 577.241 731.389C575.925 732.141 574.875 733.237 574.092 734.679C573.308 736.12 572.917 737.812 572.917 739.755C572.917 741.729 573.308 743.452 574.092 744.925C574.875 746.366 575.925 747.478 577.241 748.262C578.557 749.014 580.014 749.39 581.612 749.39C583.21 749.39 584.667 749.014 585.983 748.262C587.33 747.478 588.395 746.366 589.179 744.925C589.962 743.452 590.354 741.744 590.354 739.802ZM611.822 739.802C611.822 737.138 612.355 734.82 613.42 732.846C614.486 730.84 615.958 729.289 617.838 728.193C619.75 727.096 621.927 726.548 624.371 726.548C627.536 726.548 630.137 727.315 632.173 728.851C634.241 730.386 635.604 732.517 636.262 735.243H631.656C631.218 733.676 630.356 732.438 629.071 731.53C627.818 730.621 626.251 730.167 624.371 730.167C621.927 730.167 619.953 731.013 618.449 732.705C616.945 734.365 616.193 736.731 616.193 739.802C616.193 742.904 616.945 745.301 618.449 746.993C619.953 748.685 621.927 749.531 624.371 749.531C626.251 749.531 627.818 749.092 629.071 748.215C630.325 747.337 631.186 746.084 631.656 744.455H636.262C635.573 747.087 634.194 749.202 632.126 750.8C630.058 752.366 627.473 753.15 624.371 753.15C621.927 753.15 619.75 752.601 617.838 751.505C615.958 750.408 614.486 748.857 613.42 746.852C612.355 744.846 611.822 742.496 611.822 739.802ZM667.866 752.727L657.761 741.353V752.727H653.484V717.947H657.761V738.392L667.678 726.971H673.647L661.521 739.802L673.694 752.727H667.866ZM729.73 719.968V744.173C729.73 746.867 728.9 749.029 727.239 750.659C725.578 752.257 723.385 753.056 720.659 753.056C717.902 753.056 715.693 752.241 714.032 750.612C712.371 748.951 711.541 746.695 711.541 743.844H715.818C715.849 745.442 716.257 746.742 717.04 747.745C717.855 748.747 719.061 749.249 720.659 749.249C722.257 749.249 723.448 748.779 724.231 747.839C725.014 746.867 725.406 745.645 725.406 744.173V719.968H729.73ZM760.058 753.056C757.896 753.056 755.953 752.68 754.23 751.928C752.538 751.144 751.206 750.079 750.235 748.732C749.263 747.353 748.762 745.771 748.731 743.985H753.29C753.446 745.52 754.073 746.82 755.17 747.886C756.298 748.92 757.927 749.437 760.058 749.437C762.094 749.437 763.692 748.935 764.852 747.933C766.042 746.899 766.638 745.583 766.638 743.985C766.638 742.731 766.293 741.713 765.604 740.93C764.914 740.146 764.053 739.551 763.019 739.144C761.985 738.736 760.59 738.298 758.836 737.828C756.674 737.264 754.935 736.7 753.619 736.136C752.334 735.572 751.222 734.694 750.282 733.504C749.373 732.282 748.919 730.652 748.919 728.616C748.919 726.83 749.373 725.247 750.282 723.869C751.19 722.49 752.459 721.425 754.089 720.673C755.749 719.921 757.645 719.545 759.776 719.545C762.846 719.545 765.353 720.312 767.296 721.848C769.27 723.383 770.382 725.42 770.633 727.958H765.933C765.776 726.704 765.118 725.608 763.959 724.668C762.799 723.696 761.264 723.211 759.353 723.211C757.567 723.211 756.11 723.681 754.982 724.621C753.854 725.529 753.29 726.814 753.29 728.475C753.29 729.665 753.619 730.637 754.277 731.389C754.966 732.141 755.796 732.72 756.768 733.128C757.77 733.504 759.165 733.942 760.951 734.444C763.113 735.039 764.852 735.634 766.168 736.23C767.484 736.794 768.612 737.687 769.552 738.909C770.492 740.099 770.962 741.729 770.962 743.797C770.962 745.395 770.539 746.899 769.693 748.309C768.847 749.719 767.593 750.862 765.933 751.74C764.272 752.617 762.314 753.056 760.058 753.056ZM823.015 719.968C826.587 719.968 829.673 720.641 832.274 721.989C834.906 723.305 836.911 725.2 838.29 727.676C839.7 730.151 840.405 733.065 840.405 736.418C840.405 739.77 839.7 742.684 838.29 745.16C836.911 747.604 834.906 749.484 832.274 750.8C829.673 752.084 826.587 752.727 823.015 752.727H812.816V719.968H823.015ZM823.015 749.202C827.245 749.202 830.472 748.089 832.697 745.865C834.922 743.609 836.034 740.46 836.034 736.418C836.034 732.344 834.906 729.164 832.65 726.877C830.425 724.589 827.214 723.446 823.015 723.446H817.093V749.202H823.015ZM881.061 738.862C881.061 739.676 881.014 740.538 880.92 741.447H860.334C860.491 743.985 861.353 745.974 862.919 747.416C864.517 748.826 866.444 749.531 868.7 749.531C870.549 749.531 872.084 749.108 873.306 748.262C874.56 747.384 875.437 746.225 875.938 744.784H880.544C879.855 747.259 878.476 749.28 876.408 750.847C874.34 752.382 871.771 753.15 868.7 753.15C866.256 753.15 864.063 752.601 862.12 751.505C860.209 750.408 858.705 748.857 857.608 746.852C856.512 744.815 855.963 742.465 855.963 739.802C855.963 737.138 856.496 734.804 857.561 732.799C858.627 730.793 860.115 729.258 862.026 728.193C863.969 727.096 866.194 726.548 868.7 726.548C871.144 726.548 873.306 727.08 875.186 728.146C877.066 729.211 878.508 730.684 879.51 732.564C880.544 734.412 881.061 736.512 881.061 738.862ZM876.643 737.969C876.643 736.339 876.283 734.945 875.562 733.786C874.842 732.595 873.855 731.702 872.601 731.107C871.379 730.48 870.016 730.167 868.512 730.167C866.35 730.167 864.502 730.856 862.966 732.235C861.462 733.613 860.601 735.525 860.381 737.969H876.643ZM907.81 748.779L915.8 726.971H920.359L910.254 752.727H905.272L895.167 726.971H899.773L907.81 748.779ZM965.486 757.709H961.209V715.362H965.486V757.709ZM1013.55 719.968V740.695C1013.55 743.609 1014.25 745.771 1015.66 747.181C1017.11 748.591 1019.09 749.296 1021.63 749.296C1024.14 749.296 1026.1 748.591 1027.51 747.181C1028.95 745.771 1029.67 743.609 1029.67 740.695V719.968H1033.95V740.648C1033.95 743.374 1033.4 745.677 1032.3 747.557C1031.21 749.405 1029.72 750.784 1027.84 751.693C1025.99 752.601 1023.9 753.056 1021.59 753.056C1019.27 753.056 1017.17 752.601 1015.29 751.693C1013.44 750.784 1011.97 749.405 1010.87 747.557C1009.8 745.677 1009.27 743.374 1009.27 740.648V719.968H1013.55ZM1056.87 719.968V752.727H1052.6V719.968H1056.87ZM1091.66 708.453L1078.78 760.717H1074.55L1087.38 708.453H1091.66ZM1113.73 719.968V740.695C1113.73 743.609 1114.43 745.771 1115.84 747.181C1117.29 748.591 1119.27 749.296 1121.81 749.296C1124.32 749.296 1126.28 748.591 1127.69 747.181C1129.13 745.771 1129.85 743.609 1129.85 740.695V719.968H1134.13V740.648C1134.13 743.374 1133.58 745.677 1132.48 747.557C1131.39 749.405 1129.9 750.784 1128.02 751.693C1126.17 752.601 1124.08 753.056 1121.77 753.056C1119.45 753.056 1117.35 752.601 1115.47 751.693C1113.62 750.784 1112.15 749.405 1111.05 747.557C1109.98 745.677 1109.45 743.374 1109.45 740.648V719.968H1113.73ZM1166.17 736.371L1176.23 752.727H1171.39L1163.54 739.943L1156.07 752.727H1151.32L1161.33 736.371L1151.27 719.968H1156.07L1163.96 732.799L1171.48 719.968H1176.28L1166.17 736.371ZM1227.73 719.968C1231.3 719.968 1234.39 720.641 1236.99 721.989C1239.62 723.305 1241.62 725.2 1243 727.676C1244.41 730.151 1245.12 733.065 1245.12 736.418C1245.12 739.77 1244.41 742.684 1243 745.16C1241.62 747.604 1239.62 749.484 1236.99 750.8C1234.39 752.084 1231.3 752.727 1227.73 752.727H1217.53V719.968H1227.73ZM1227.73 749.202C1231.96 749.202 1235.18 748.089 1237.41 745.865C1239.63 743.609 1240.75 740.46 1240.75 736.418C1240.75 732.344 1239.62 729.164 1237.36 726.877C1235.14 724.589 1231.93 723.446 1227.73 723.446H1221.81V749.202H1227.73ZM1285.77 738.862C1285.77 739.676 1285.73 740.538 1285.63 741.447H1265.05C1265.2 743.985 1266.06 745.974 1267.63 747.416C1269.23 748.826 1271.16 749.531 1273.41 749.531C1275.26 749.531 1276.8 749.108 1278.02 748.262C1279.27 747.384 1280.15 746.225 1280.65 744.784H1285.26C1284.57 747.259 1283.19 749.28 1281.12 750.847C1279.05 752.382 1276.48 753.15 1273.41 753.15C1270.97 753.15 1268.78 752.601 1266.83 751.505C1264.92 750.408 1263.42 748.857 1262.32 746.852C1261.22 744.815 1260.68 742.465 1260.68 739.802C1260.68 737.138 1261.21 734.804 1262.27 732.799C1263.34 730.793 1264.83 729.258 1266.74 728.193C1268.68 727.096 1270.91 726.548 1273.41 726.548C1275.86 726.548 1278.02 727.08 1279.9 728.146C1281.78 729.211 1283.22 730.684 1284.22 732.564C1285.26 734.412 1285.77 736.512 1285.77 738.862ZM1281.36 737.969C1281.36 736.339 1281 734.945 1280.27 733.786C1279.55 732.595 1278.57 731.702 1277.31 731.107C1276.09 730.48 1274.73 730.167 1273.22 730.167C1271.06 730.167 1269.21 730.856 1267.68 732.235C1266.17 733.613 1265.31 735.525 1265.09 737.969H1281.36ZM1312.05 753.15C1310.08 753.15 1308.31 752.821 1306.74 752.163C1305.17 751.473 1303.94 750.533 1303.03 749.343C1302.12 748.121 1301.62 746.726 1301.52 745.16H1305.94C1306.07 746.444 1306.66 747.494 1307.73 748.309C1308.82 749.123 1310.25 749.531 1312.01 749.531C1313.63 749.531 1314.92 749.17 1315.86 748.45C1316.8 747.729 1317.27 746.82 1317.27 745.724C1317.27 744.596 1316.77 743.765 1315.77 743.233C1314.76 742.669 1313.21 742.12 1311.11 741.588C1309.2 741.086 1307.63 740.585 1306.41 740.084C1305.22 739.551 1304.19 738.783 1303.31 737.781C1302.46 736.747 1302.04 735.399 1302.04 733.739C1302.04 732.423 1302.43 731.216 1303.22 730.12C1304 729.023 1305.11 728.161 1306.55 727.535C1307.99 726.877 1309.64 726.548 1311.49 726.548C1314.34 726.548 1316.64 727.268 1318.4 728.71C1320.15 730.151 1321.09 732.125 1321.22 734.632H1316.94C1316.85 733.284 1316.3 732.203 1315.3 731.389C1314.32 730.574 1313.01 730.167 1311.35 730.167C1309.81 730.167 1308.59 730.496 1307.68 731.154C1306.77 731.812 1306.32 732.673 1306.32 733.739C1306.32 734.585 1306.58 735.29 1307.12 735.854C1307.68 736.386 1308.37 736.825 1309.19 737.17C1310.03 737.483 1311.19 737.843 1312.66 738.251C1314.51 738.752 1316.02 739.253 1317.18 739.755C1318.33 740.225 1319.32 740.945 1320.14 741.917C1320.98 742.888 1321.42 744.157 1321.45 745.724C1321.45 747.134 1321.06 748.403 1320.28 749.531C1319.49 750.659 1318.38 751.552 1316.94 752.21C1315.53 752.836 1313.9 753.15 1312.05 753.15ZM1341.21 722.788C1340.4 722.788 1339.71 722.506 1339.15 721.942C1338.58 721.378 1338.3 720.688 1338.3 719.874C1338.3 719.059 1338.58 718.37 1339.15 717.806C1339.71 717.242 1340.4 716.96 1341.21 716.96C1342 716.96 1342.66 717.242 1343.19 717.806C1343.75 718.37 1344.03 719.059 1344.03 719.874C1344.03 720.688 1343.75 721.378 1343.19 721.942C1342.66 722.506 1342 722.788 1341.21 722.788ZM1343.28 726.971V752.727H1339V726.971H1343.28ZM1372.71 726.548C1374.93 726.548 1376.88 727.033 1378.54 728.005C1380.23 728.976 1381.48 730.198 1382.3 731.671V726.971H1386.62V753.291C1386.62 755.641 1386.12 757.724 1385.12 759.542C1384.11 761.39 1382.67 762.832 1380.79 763.866C1378.94 764.9 1376.78 765.417 1374.31 765.417C1370.92 765.417 1368.1 764.618 1365.85 763.02C1363.59 761.422 1362.26 759.244 1361.85 756.487H1366.08C1366.55 758.053 1367.52 759.307 1369 760.247C1370.47 761.218 1372.24 761.704 1374.31 761.704C1376.66 761.704 1378.57 760.967 1380.04 759.495C1381.54 758.022 1382.3 755.954 1382.3 753.291V747.886C1381.45 749.39 1380.2 750.643 1378.54 751.646C1376.88 752.648 1374.93 753.15 1372.71 753.15C1370.42 753.15 1368.34 752.586 1366.46 751.458C1364.61 750.33 1363.15 748.747 1362.09 746.711C1361.02 744.674 1360.49 742.355 1360.49 739.755C1360.49 737.123 1361.02 734.82 1362.09 732.846C1363.15 730.84 1364.61 729.289 1366.46 728.193C1368.34 727.096 1370.42 726.548 1372.71 726.548ZM1382.3 739.802C1382.3 737.859 1381.9 736.167 1381.12 734.726C1380.34 733.284 1379.27 732.188 1377.93 731.436C1376.61 730.652 1375.15 730.261 1373.55 730.261C1371.96 730.261 1370.5 730.637 1369.18 731.389C1367.87 732.141 1366.82 733.237 1366.03 734.679C1365.25 736.12 1364.86 737.812 1364.86 739.755C1364.86 741.729 1365.25 743.452 1366.03 744.925C1366.82 746.366 1367.87 747.478 1369.18 748.262C1370.5 749.014 1371.96 749.39 1373.55 749.39C1375.15 749.39 1376.61 749.014 1377.93 748.262C1379.27 747.478 1380.34 746.366 1381.12 744.925C1381.9 743.452 1382.3 741.744 1382.3 739.802ZM1417.91 726.501C1421.05 726.501 1423.58 727.456 1425.53 729.368C1427.47 731.248 1428.44 733.974 1428.44 737.546V752.727H1424.21V738.157C1424.21 735.587 1423.57 733.629 1422.28 732.282C1421 730.903 1419.24 730.214 1417.02 730.214C1414.76 730.214 1412.96 730.919 1411.61 732.329C1410.3 733.739 1409.64 735.791 1409.64 738.486V752.727H1405.36V726.971H1409.64V730.637C1410.49 729.321 1411.63 728.302 1413.07 727.582C1414.54 726.861 1416.16 726.501 1417.91 726.501ZM1470.44 738.862C1470.44 739.676 1470.39 740.538 1470.3 741.447H1449.71C1449.87 743.985 1450.73 745.974 1452.3 747.416C1453.9 748.826 1455.82 749.531 1458.08 749.531C1459.93 749.531 1461.46 749.108 1462.69 748.262C1463.94 747.384 1464.82 746.225 1465.32 744.784H1469.92C1469.24 747.259 1467.86 749.28 1465.79 750.847C1463.72 752.382 1461.15 753.15 1458.08 753.15C1455.64 753.15 1453.44 752.601 1451.5 751.505C1449.59 750.408 1448.09 748.857 1446.99 746.852C1445.89 744.815 1445.34 742.465 1445.34 739.802C1445.34 737.138 1445.88 734.804 1446.94 732.799C1448.01 730.793 1449.5 729.258 1451.41 728.193C1453.35 727.096 1455.57 726.548 1458.08 726.548C1460.52 726.548 1462.69 727.08 1464.57 728.146C1466.45 729.211 1467.89 730.684 1468.89 732.564C1469.92 734.412 1470.44 736.512 1470.44 738.862ZM1466.02 737.969C1466.02 736.339 1465.66 734.945 1464.94 733.786C1464.22 732.595 1463.23 731.702 1461.98 731.107C1460.76 730.48 1459.4 730.167 1457.89 730.167C1455.73 730.167 1453.88 730.856 1452.35 732.235C1450.84 733.613 1449.98 735.525 1449.76 737.969H1466.02ZM1491.88 731.154C1492.63 729.681 1493.7 728.537 1495.07 727.723C1496.48 726.908 1498.19 726.501 1500.2 726.501V730.919H1499.07C1494.28 730.919 1491.88 733.519 1491.88 738.721V752.727H1487.6V726.971H1491.88V731.154Z" fill="#39383E"/>
<path d="M2044.86 940.5V947.047H2052V949.154H2044.86V955.898H2052.84V958.005H2042.31V938.393H2052.84V940.5H2044.86ZM2055.76 950.25C2055.76 948.676 2056.08 947.3 2056.71 946.12C2057.35 944.921 2058.22 943.994 2059.33 943.338C2060.45 942.682 2061.71 942.355 2063.09 942.355C2064.29 942.355 2065.41 942.636 2066.44 943.197C2067.47 943.741 2068.25 944.462 2068.8 945.361V937.213H2071.38V958.005H2068.8V955.111C2068.29 956.029 2067.54 956.787 2066.55 957.387C2065.55 957.967 2064.39 958.258 2063.06 958.258C2061.7 958.258 2060.45 957.921 2059.33 957.246C2058.22 956.572 2057.35 955.626 2056.71 954.408C2056.08 953.191 2055.76 951.805 2055.76 950.25ZM2068.8 950.278C2068.8 949.117 2068.56 948.105 2068.09 947.244C2067.62 946.382 2066.99 945.726 2066.18 945.277C2065.4 944.808 2064.52 944.574 2063.57 944.574C2062.61 944.574 2061.74 944.799 2060.96 945.249C2060.17 945.698 2059.54 946.354 2059.07 947.215C2058.61 948.077 2058.37 949.089 2058.37 950.25C2058.37 951.43 2058.61 952.46 2059.07 953.341C2059.54 954.202 2060.17 954.867 2060.96 955.336C2061.74 955.785 2062.61 956.01 2063.57 956.01C2064.52 956.01 2065.4 955.785 2066.18 955.336C2066.99 954.867 2067.62 954.202 2068.09 953.341C2068.56 952.46 2068.8 951.439 2068.8 950.278ZM2096.21 942.607L2091.41 958.005H2088.77L2085.06 945.782L2081.35 958.005H2078.71L2073.87 942.607H2076.49L2080.03 955.532L2083.85 942.607H2086.46L2090.2 955.56L2093.68 942.607H2096.21ZM2097.79 950.25C2097.79 948.676 2098.11 947.3 2098.75 946.12C2099.39 944.921 2100.26 943.994 2101.36 943.338C2102.49 942.682 2103.73 942.355 2105.1 942.355C2106.45 942.355 2107.62 942.645 2108.61 943.226C2109.61 943.806 2110.35 944.537 2110.83 945.417V942.607H2113.42V958.005H2110.83V955.139C2110.33 956.038 2109.57 956.787 2108.56 957.387C2107.56 957.967 2106.4 958.258 2105.07 958.258C2103.7 958.258 2102.47 957.921 2101.36 957.246C2100.26 956.572 2099.39 955.626 2098.75 954.408C2098.11 953.191 2097.79 951.805 2097.79 950.25ZM2110.83 950.278C2110.83 949.117 2110.6 948.105 2110.13 947.244C2109.66 946.382 2109.02 945.726 2108.22 945.277C2107.43 944.808 2106.56 944.574 2105.61 944.574C2104.65 944.574 2103.78 944.799 2102.99 945.249C2102.21 945.698 2101.58 946.354 2101.11 947.215C2100.64 948.077 2100.41 949.089 2100.41 950.25C2100.41 951.43 2100.64 952.46 2101.11 953.341C2101.58 954.202 2102.21 954.867 2102.99 955.336C2103.78 955.785 2104.65 956.01 2105.61 956.01C2106.56 956.01 2107.43 955.785 2108.22 955.336C2109.02 954.867 2109.66 954.202 2110.13 953.341C2110.6 952.46 2110.83 951.439 2110.83 950.278ZM2120.29 945.108C2120.74 944.228 2121.38 943.544 2122.21 943.057C2123.05 942.57 2124.07 942.326 2125.27 942.326V944.968H2124.59C2121.73 944.968 2120.29 946.522 2120.29 949.632V958.005H2117.74V942.607H2120.29V945.108ZM2127.26 950.25C2127.26 948.676 2127.58 947.3 2128.22 946.12C2128.86 944.921 2129.73 943.994 2130.83 943.338C2131.96 942.682 2133.21 942.355 2134.6 942.355C2135.8 942.355 2136.91 942.636 2137.94 943.197C2138.97 943.741 2139.76 944.462 2140.3 945.361V937.213H2142.89V958.005H2140.3V955.111C2139.8 956.029 2139.05 956.787 2138.05 957.387C2137.06 957.967 2135.9 958.258 2134.57 958.258C2133.2 958.258 2131.96 957.921 2130.83 957.246C2129.73 956.572 2128.86 955.626 2128.22 954.408C2127.58 953.191 2127.26 951.805 2127.26 950.25ZM2140.3 950.278C2140.3 949.117 2140.07 948.105 2139.6 947.244C2139.13 946.382 2138.49 945.726 2137.69 945.277C2136.9 944.808 2136.03 944.574 2135.08 944.574C2134.12 944.574 2133.25 944.799 2132.46 945.249C2131.68 945.698 2131.05 946.354 2130.58 947.215C2130.11 948.077 2129.88 949.089 2129.88 950.25C2129.88 951.43 2130.11 952.46 2130.58 953.341C2131.05 954.202 2131.68 954.867 2132.46 955.336C2133.25 955.785 2134.12 956.01 2135.08 956.01C2136.03 956.01 2136.9 955.785 2137.69 955.336C2138.49 954.867 2139.13 954.202 2139.6 953.341C2140.07 952.46 2140.3 951.439 2140.3 950.278ZM2165.77 938.421V940.5H2157.26V947.103H2164.17V949.182H2157.26V958.005H2154.7V938.421H2165.77ZM2182.91 949.716C2182.91 950.203 2182.88 950.718 2182.82 951.261H2170.51C2170.61 952.779 2171.12 953.968 2172.06 954.83C2173.02 955.673 2174.17 956.094 2175.52 956.094C2176.62 956.094 2177.54 955.841 2178.27 955.336C2179.02 954.811 2179.54 954.118 2179.84 953.256H2182.6C2182.18 954.736 2181.36 955.944 2180.12 956.881C2178.89 957.799 2177.35 958.258 2175.52 958.258C2174.05 958.258 2172.74 957.93 2171.58 957.274C2170.44 956.619 2169.54 955.692 2168.88 954.493C2168.23 953.275 2167.9 951.87 2167.9 950.278C2167.9 948.686 2168.22 947.29 2168.86 946.092C2169.49 944.893 2170.38 943.975 2171.53 943.338C2172.69 942.682 2174.02 942.355 2175.52 942.355C2176.98 942.355 2178.27 942.673 2179.39 943.31C2180.52 943.947 2181.38 944.827 2181.98 945.951C2182.6 947.056 2182.91 948.311 2182.91 949.716ZM2180.26 949.182C2180.26 948.208 2180.05 947.375 2179.62 946.682C2179.19 945.97 2178.6 945.436 2177.85 945.08C2177.12 944.705 2176.3 944.518 2175.4 944.518C2174.11 944.518 2173.01 944.93 2172.09 945.754C2171.19 946.579 2170.67 947.721 2170.54 949.182H2180.26ZM2188.84 945.108C2189.29 944.228 2189.92 943.544 2190.75 943.057C2191.59 942.57 2192.61 942.326 2193.81 942.326V944.968H2193.14C2190.27 944.968 2188.84 946.522 2188.84 949.632V958.005H2186.28V942.607H2188.84V945.108ZM2204.26 942.326C2206.14 942.326 2207.65 942.898 2208.82 944.04C2209.98 945.164 2210.56 946.794 2210.56 948.929V958.005H2208.03V949.295C2208.03 947.759 2207.65 946.588 2206.88 945.782C2206.11 944.958 2205.06 944.546 2203.73 944.546C2202.38 944.546 2201.3 944.968 2200.5 945.811C2199.71 946.653 2199.32 947.88 2199.32 949.491V958.005H2196.76V942.607H2199.32V944.799C2199.82 944.012 2200.51 943.404 2201.37 942.973C2202.25 942.542 2203.22 942.326 2204.26 942.326ZM2213.78 950.25C2213.78 948.676 2214.1 947.3 2214.73 946.12C2215.37 944.921 2216.24 943.994 2217.35 943.338C2218.47 942.682 2219.72 942.355 2221.08 942.355C2222.43 942.355 2223.6 942.645 2224.6 943.226C2225.59 943.806 2226.33 944.537 2226.82 945.417V942.607H2229.4V958.005H2226.82V955.139C2226.31 956.038 2225.55 956.787 2224.54 957.387C2223.55 957.967 2222.39 958.258 2221.06 958.258C2219.69 958.258 2218.45 957.921 2217.35 957.246C2216.24 956.572 2215.37 955.626 2214.73 954.408C2214.1 953.191 2213.78 951.805 2213.78 950.25ZM2226.82 950.278C2226.82 949.117 2226.58 948.105 2226.11 947.244C2225.65 946.382 2225.01 945.726 2224.2 945.277C2223.42 944.808 2222.55 944.574 2221.59 944.574C2220.64 944.574 2219.76 944.799 2218.98 945.249C2218.19 945.698 2217.56 946.354 2217.1 947.215C2216.63 948.077 2216.39 949.089 2216.39 950.25C2216.39 951.43 2216.63 952.46 2217.1 953.341C2217.56 954.202 2218.19 954.867 2218.98 955.336C2219.76 955.785 2220.64 956.01 2221.59 956.01C2222.55 956.01 2223.42 955.785 2224.2 955.336C2225.01 954.867 2225.65 954.202 2226.11 953.341C2226.58 952.46 2226.82 951.439 2226.82 950.278ZM2241.22 942.326C2243.1 942.326 2244.62 942.898 2245.78 944.04C2246.94 945.164 2247.52 946.794 2247.52 948.929V958.005H2244.99V949.295C2244.99 947.759 2244.61 946.588 2243.84 945.782C2243.07 944.958 2242.02 944.546 2240.69 944.546C2239.34 944.546 2238.27 944.968 2237.46 945.811C2236.67 946.653 2236.28 947.88 2236.28 949.491V958.005H2233.72V942.607H2236.28V944.799C2236.79 944.012 2237.47 943.404 2238.33 942.973C2239.21 942.542 2240.18 942.326 2241.22 942.326ZM2250.74 950.25C2250.74 948.676 2251.06 947.3 2251.7 946.12C2252.33 944.921 2253.2 943.994 2254.31 943.338C2255.43 942.682 2256.69 942.355 2258.07 942.355C2259.27 942.355 2260.39 942.636 2261.42 943.197C2262.45 943.741 2263.23 944.462 2263.78 945.361V937.213H2266.36V958.005H2263.78V955.111C2263.27 956.029 2262.52 956.787 2261.53 957.387C2260.54 957.967 2259.38 958.258 2258.05 958.258C2256.68 958.258 2255.43 957.921 2254.31 957.246C2253.2 956.572 2252.33 955.626 2251.7 954.408C2251.06 953.191 2250.74 951.805 2250.74 950.25ZM2263.78 950.278C2263.78 949.117 2263.54 948.105 2263.07 947.244C2262.61 946.382 2261.97 945.726 2261.16 945.277C2260.38 944.808 2259.51 944.574 2258.55 944.574C2257.6 944.574 2256.72 944.799 2255.94 945.249C2255.15 945.698 2254.52 946.354 2254.06 947.215C2253.59 948.077 2253.35 949.089 2253.35 950.25C2253.35 951.43 2253.59 952.46 2254.06 953.341C2254.52 954.202 2255.15 954.867 2255.94 955.336C2256.72 955.785 2257.6 956.01 2258.55 956.01C2259.51 956.01 2260.38 955.785 2261.16 955.336C2261.97 954.867 2262.61 954.202 2263.07 953.341C2263.54 952.46 2263.78 951.439 2263.78 950.278ZM2284.73 949.716C2284.73 950.203 2284.7 950.718 2284.65 951.261H2272.34C2272.43 952.779 2272.95 953.968 2273.89 954.83C2274.84 955.673 2275.99 956.094 2277.34 956.094C2278.45 956.094 2279.37 955.841 2280.1 955.336C2280.84 954.811 2281.37 954.118 2281.67 953.256H2284.42C2284.01 954.736 2283.19 955.944 2281.95 956.881C2280.71 957.799 2279.18 958.258 2277.34 958.258C2275.88 958.258 2274.57 957.93 2273.41 957.274C2272.27 956.619 2271.37 955.692 2270.71 954.493C2270.06 953.275 2269.73 951.87 2269.73 950.278C2269.73 948.686 2270.05 947.29 2270.68 946.092C2271.32 944.893 2272.21 943.975 2273.35 943.338C2274.51 942.682 2275.84 942.355 2277.34 942.355C2278.8 942.355 2280.1 942.673 2281.22 943.31C2282.34 943.947 2283.21 944.827 2283.8 945.951C2284.42 947.056 2284.73 948.311 2284.73 949.716ZM2282.09 949.182C2282.09 948.208 2281.88 947.375 2281.44 946.682C2281.01 945.97 2280.42 945.436 2279.67 945.08C2278.94 944.705 2278.13 944.518 2277.23 944.518C2275.94 944.518 2274.83 944.93 2273.91 945.754C2273.02 946.579 2272.5 947.721 2272.37 949.182H2282.09ZM2290.02 955.898H2297.58V958.005H2287.1V955.898L2294.57 944.687H2287.15V942.607H2297.52V944.687L2290.02 955.898Z" fill="#39383E"/>
<line x1="357.804" y1="948.808" x2="2015.56" y2="948.808" stroke="#338EE7" stroke-width="3.5122"/>
<line x1="730.095" y1="341.611" x2="2300.05" y2="341.611" stroke="#338EE7" stroke-width="3.5122"/>
<path d="M375.102 341.65C375.46 341.391 375.633 340.963 375.633 340.375C375.645 340.095 375.587 339.819 375.464 339.568C375.353 339.366 375.188 339.197 374.987 339.078C374.777 338.951 374.545 338.867 374.303 338.831C374.04 338.782 373.772 338.757 373.509 338.761H370.616V342.041H373.748C374.287 342.046 374.744 341.914 375.102 341.65V341.65ZM375.587 344.614C375.184 344.305 374.645 344.153 373.974 344.153H370.607V348.022H373.908C374.217 348.022 374.501 347.993 374.777 347.935C375.038 347.884 375.286 347.784 375.509 347.639C375.719 347.503 375.888 347.318 376.016 347.079C376.139 346.841 376.201 346.536 376.201 346.17C376.201 345.441 375.995 344.927 375.587 344.614V344.614ZM378.876 324.928C368.693 324.928 360.437 333.184 360.437 343.367C360.437 353.549 368.693 361.806 378.876 361.806C389.059 361.806 397.315 353.549 397.315 343.367C397.315 333.184 389.059 324.928 378.876 324.928ZM382.436 336.736H388.133V338.123H382.436V336.736ZM378.876 348.174C378.61 348.68 378.229 349.117 377.765 349.45C377.279 349.787 376.74 350.034 376.168 350.178C375.569 350.339 374.952 350.418 374.332 350.413H367.516V336.374H374.143C374.814 336.374 375.423 336.436 375.978 336.551C376.53 336.666 376.999 336.864 377.394 337.131C377.785 337.399 378.094 337.757 378.312 338.201C378.526 338.642 378.637 339.193 378.637 339.848C378.637 340.556 378.477 341.14 378.156 341.613C377.831 342.087 377.361 342.47 376.723 342.77C377.592 343.017 378.23 343.457 378.65 344.075C379.078 344.7 379.288 345.449 379.288 346.33C379.288 347.046 379.152 347.66 378.876 348.174ZM390.351 346.001H383.008C383.008 346.799 383.284 347.565 383.7 347.977C384.12 348.384 384.721 348.59 385.507 348.59C386.075 348.59 386.556 348.446 386.968 348.162C387.375 347.878 387.622 347.577 387.713 347.264H390.174C389.779 348.487 389.178 349.359 388.363 349.886C387.556 350.413 386.569 350.677 385.42 350.677C384.618 350.677 383.897 350.545 383.251 350.294C382.63 350.051 382.07 349.68 381.609 349.203C381.154 348.713 380.803 348.136 380.576 347.507C380.325 346.812 380.201 346.079 380.21 345.342C380.21 344.581 380.337 343.873 380.584 343.214C381.057 341.934 382.041 340.91 383.296 340.379C383.967 340.099 384.688 339.959 385.416 339.967C386.28 339.967 387.03 340.132 387.68 340.469C388.306 340.791 388.849 341.253 389.269 341.819C389.684 342.383 389.976 343.025 390.162 343.75C390.339 344.462 390.4 345.211 390.351 346.001V346.001ZM385.33 342.066C384.885 342.066 384.511 342.144 384.223 342.297C383.934 342.449 383.696 342.638 383.515 342.856C383.342 343.067 383.215 343.311 383.14 343.573C383.074 343.791 383.029 344.013 383.012 344.239H387.56C387.495 343.527 387.248 343 386.918 342.63C386.573 342.264 386.017 342.066 385.33 342.066V342.066Z" fill="#338EE7"/>
<path d="M470.195 324.928C460.012 324.928 451.756 333.184 451.756 343.367C451.756 353.549 460.012 361.806 470.195 361.806C480.378 361.806 488.634 353.549 488.634 343.367C488.634 333.184 480.378 324.928 470.195 324.928ZM479.056 338.827C479.069 339.02 479.069 339.222 479.069 339.42C479.069 345.462 474.467 352.422 466.058 352.422C463.465 352.422 461.062 351.668 459.037 350.372C459.407 350.413 459.761 350.43 460.14 350.43C462.28 350.43 464.247 349.705 465.816 348.479C463.807 348.437 462.12 347.12 461.543 345.309C462.247 345.412 462.881 345.412 463.605 345.227C462.571 345.017 461.642 344.455 460.975 343.638C460.308 342.82 459.944 341.796 459.946 340.741V340.683C460.551 341.025 461.263 341.235 462.008 341.264C461.382 340.846 460.869 340.281 460.513 339.617C460.158 338.954 459.972 338.213 459.971 337.461C459.971 336.609 460.193 335.831 460.593 335.156C461.741 336.569 463.173 337.725 464.797 338.548C466.421 339.371 468.2 339.843 470.018 339.934C469.372 336.827 471.693 334.312 474.484 334.312C475.801 334.312 476.986 334.863 477.822 335.752C478.855 335.559 479.842 335.172 480.723 334.653C480.382 335.711 479.665 336.604 478.715 337.168C479.637 337.07 480.526 336.814 481.349 336.456C480.727 337.37 479.949 338.181 479.056 338.827V338.827Z" fill="#338EE7"/>
<g clip-path="url(#clip1_308_32)">
<path d="M561.513 322.292C549.87 322.292 540.44 331.722 540.44 343.365C540.44 352.69 546.472 360.566 554.849 363.358C555.902 363.543 556.298 362.911 556.298 362.357C556.298 361.857 556.271 360.197 556.271 358.432C550.977 359.407 549.607 357.142 549.185 355.956C548.948 355.351 547.921 353.48 547.025 352.98C546.288 352.585 545.234 351.61 546.999 351.584C548.658 351.557 549.844 353.112 550.239 353.744C552.136 356.931 555.165 356.035 556.377 355.482C556.561 354.112 557.114 353.191 557.72 352.664C553.031 352.137 548.132 350.319 548.132 342.259C548.132 339.967 548.948 338.071 550.292 336.595C550.081 336.069 549.343 333.909 550.502 331.011C550.502 331.011 552.267 330.458 556.298 333.171C557.983 332.697 559.775 332.46 561.566 332.46C563.357 332.46 565.148 332.697 566.834 333.171C570.864 330.432 572.629 331.011 572.629 331.011C573.788 333.909 573.051 336.069 572.84 336.595C574.183 338.071 575 339.941 575 342.259C575 350.346 570.074 352.137 565.385 352.664C566.149 353.322 566.808 354.587 566.808 356.562C566.808 359.381 566.781 361.646 566.781 362.357C566.781 362.911 567.177 363.569 568.23 363.358C572.414 361.946 576.049 359.258 578.625 355.671C581.2 352.085 582.586 347.781 582.586 343.365C582.586 331.722 573.156 322.292 561.513 322.292Z" fill="#338EE7"/>
</g>
<g clip-path="url(#clip2_308_32)">
<path fill-rule="evenodd" clip-rule="evenodd" d="M631.757 343.483C631.757 353.96 639.366 362.672 649.318 364.438V349.218H644.05V343.365H649.318V338.682C649.318 333.413 652.712 330.488 657.514 330.488C659.034 330.488 660.674 330.721 662.195 330.955V336.341H659.503C656.927 336.341 656.342 337.628 656.342 339.268V343.365H661.962L661.026 349.218H656.342V364.438C666.294 362.672 673.903 353.961 673.903 343.483C673.903 331.828 664.42 322.292 652.83 322.292C641.24 322.292 631.757 331.828 631.757 343.483Z" fill="#338EE7"/>
</g>
</g>
<defs>
<filter id="filter0_d_308_32" x="0.760498" y="0.53008" width="3418.48" height="1304.48" filterUnits="userSpaceOnUse" color-interpolation-filters="sRGB">
<feFlood flood-opacity="0" result="BackgroundImageFix"/>
<feColorMatrix in="SourceAlpha" type="matrix" values="0 0 0 0 0 0 0 0 0 0 0 0 0 0 0 0 0 0 127 0" result="hardAlpha"/>
<feOffset dy="10.7696"/>
<feGaussianBlur stdDeviation="134.62"/>
<feComposite in2="hardAlpha" operator="out"/>
<feColorMatrix type="matrix" values="0 0 0 0 0 0 0 0 0 0 0 0 0 0 0 0 0 0 0.18 0"/>
<feBlend mode="normal" in2="BackgroundImageFix" result="effect1_dropShadow_308_32"/>
<feBlend mode="normal" in="SourceGraphic" in2="effect1_dropShadow_308_32" result="shape"/>
</filter>
<filter id="filter1_d_308_32" x="2831.93" y="123.212" width="529.058" height="1031.7" filterUnits="userSpaceOnUse" color-interpolation-filters="sRGB">
<feFlood flood-opacity="0" result="BackgroundImageFix"/>
<feColorMatrix in="SourceAlpha" type="matrix" values="0 0 0 0 0 0 0 0 0 0 0 0 0 0 0 0 0 0 127 0" result="hardAlpha"/>
<feOffset/>
<feGaussianBlur stdDeviation="5.82376"/>
<feComposite in2="hardAlpha" operator="out"/>
<feColorMatrix type="matrix" values="0 0 0 0 0.0588235 0 0 0 0 0.427451 0 0 0 0 0.733333 0 0 0 1 0"/>
<feBlend mode="normal" in2="BackgroundImageFix" result="effect1_dropShadow_308_32"/>
<feBlend mode="normal" in="SourceGraphic" in2="effect1_dropShadow_308_32" result="shape"/>
</filter>
<filter id="filter2_d_308_32" x="2188.24" y="35.8085" width="628.506" height="1212.4" filterUnits="userSpaceOnUse" color-interpolation-filters="sRGB">
<feFlood flood-opacity="0" result="BackgroundImageFix"/>
<feColorMatrix in="SourceAlpha" type="matrix" values="0 0 0 0 0 0 0 0 0 0 0 0 0 0 0 0 0 0 127 0" result="hardAlpha"/>
<feOffset/>
<feGaussianBlur stdDeviation="5.82376"/>
<feComposite in2="hardAlpha" operator="out"/>
<feColorMatrix type="matrix" values="0 0 0 0 0.0588235 0 0 0 0 0.427451 0 0 0 0 0.733333 0 0 0 1 0"/>
<feBlend mode="normal" in2="BackgroundImageFix" result="effect1_dropShadow_308_32"/>
<feBlend mode="normal" in="SourceGraphic" in2="effect1_dropShadow_308_32" result="shape"/>
</filter>
<linearGradient id="paint0_linear_308_32" x1="618.646" y1="314.141" x2="610.297" y2="1653.66" gradientUnits="userSpaceOnUse">
<stop stop-color="#0457D2"/>
<stop offset="1" stop-color="#14AAFF" stop-opacity="0.58"/>
</linearGradient>
<linearGradient id="paint1_linear_308_32" x1="610.242" y1="110.918" x2="610.242" y2="1653.66" gradientUnits="userSpaceOnUse">
<stop stop-color="#F1F1F1"/>
<stop offset="1" stop-color="#00C2FF" stop-opacity="0.71"/>
</linearGradient>
<linearGradient id="paint2_linear_308_32" x1="707.495" y1="268.37" x2="699.146" y2="1607.89" gradientUnits="userSpaceOnUse">
<stop stop-color="#0457D2"/>
<stop offset="1" stop-color="#14AAFF" stop-opacity="0.58"/>
</linearGradient>
<linearGradient id="paint3_linear_308_32" x1="699.091" y1="65.1475" x2="699.091" y2="1607.89" gradientUnits="userSpaceOnUse">
<stop stop-color="#F1F1F1"/>
<stop offset="1" stop-color="#00C2FF" stop-opacity="0.71"/>
</linearGradient>
<linearGradient id="paint4_linear_308_32" x1="2915.04" y1="191.052" x2="2915.04" y2="1101" gradientUnits="userSpaceOnUse">
<stop stop-color="#0457D2"/>
<stop offset="1" stop-color="#0E6CBC"/>
</linearGradient>
<linearGradient id="paint5_linear_308_32" x1="2975.31" y1="1158.5" x2="2975.31" y2="133.068" gradientUnits="userSpaceOnUse">
<stop stop-color="#0457D2"/>
<stop offset="1" stop-color="#0E6CBC"/>
</linearGradient>
<linearGradient id="paint6_linear_308_32" x1="2740.62" y1="336.248" x2="2736.13" y2="1054.14" gradientUnits="userSpaceOnUse">
<stop stop-color="#0457D2"/>
<stop offset="1" stop-color="#14AAFF" stop-opacity="0.58"/>
</linearGradient>
<linearGradient id="paint7_linear_308_32" x1="2736.13" y1="227.335" x2="2736.13" y2="1054.14" gradientUnits="userSpaceOnUse">
<stop stop-color="#F1F1F1"/>
<stop offset="1" stop-color="#00C2FF" stop-opacity="0.71"/>
</linearGradient>
<clipPath id="clip0_308_32">
<rect width="2880" height="766" fill="white" transform="translate(270 259)"/>
</clipPath>
<clipPath id="clip1_308_32">
<rect width="42.1463" height="42.1463" fill="white" transform="translate(540.44 322.292)"/>
</clipPath>
<clipPath id="clip2_308_32">
<rect width="42.1463" height="42.1463" fill="white" transform="translate(631.757 322.292)"/>
</clipPath>
</defs>
</svg>
