<svg width="10961" height="4183" viewBox="0 0 10961 4183" fill="none" xmlns="http://www.w3.org/2000/svg">
<g clip-path="url(#clip0_308_32)" filter="url(#filter0_d_308_32)">
<rect width="9232.99" height="2455.72" transform="translate(864 829)" fill="#F1F1F1"/>
<g opacity="0.62">
<path opacity="0.14" d="M2338 2524.74C1160.05 2101.6 907.249 1328.51 928.094 994.853C928.094 828.025 883.75 468.208 706.37 363.562C484.646 232.754 -9.94914 1523.77 -55.4299 1609.08C-100.911 1694.39 -203.242 3815.76 -146.391 4344.67C-89.5405 4873.59 1371.53 5300.14 1621.67 5300.14C1871.82 5300.14 4162.91 4816.72 4117.43 4447.05C4071.95 4077.37 3810.44 3053.66 2338 2524.74Z" fill="url(#paint0_linear_308_32)" stroke="url(#paint1_linear_308_32)" stroke-width="3.43703"/>
<path opacity="0.33" d="M2622.84 2378C1444.89 1954.87 1192.09 1181.77 1212.94 848.117C1212.94 681.29 1168.59 321.473 991.211 216.827C769.487 86.0187 274.892 1377.04 229.411 1462.35C183.931 1547.66 81.5989 3669.02 138.45 4197.94C195.301 4726.86 1656.37 5153.41 1906.52 5153.41C2156.66 5153.41 4447.75 4669.99 4402.27 4300.31C4356.79 3930.64 4095.28 2906.92 2622.84 2378Z" fill="url(#paint2_linear_308_32)" stroke="url(#paint3_linear_308_32)" stroke-width="3.43703"/>
</g>
<g opacity="0.82">
<g filter="url(#filter1_d_308_32)">
<path d="M9130.18 3652.87L10714.1 2069.76L9130.18 468.865V1313.78L9717.48 1900.78" stroke="url(#paint4_linear_308_32)" stroke-width="31.1173"/>
</g>
<g filter="url(#filter2_d_308_32)">
<path d="M8980.28 3951.91L7073.12 2068.98L8980.29 161.813" stroke="url(#paint5_linear_308_32)" stroke-width="31.1173"/>
</g>
<path d="M7638.8 2052.8L8964.12 727.484V1365.9L8277.22 2052.8L8964.12 2723.55L9578.3 2052.8L9925.79 2408.38L8964.12 3378.12L7638.8 2052.8Z" fill="url(#paint6_linear_308_32)" stroke="url(#paint7_linear_308_32)" stroke-width="3.11173"/>
</g>
<path d="M1485.14 2126.62H1239.6V1816.93H1485.14V1878.87H1319.23V1938.59H1449.75V2000.53H1319.23V2064.68H1485.14V2126.62ZM1706.24 1816.93C1739.57 1816.93 1764.79 1825.63 1781.9 1843.03C1799.3 1860.14 1808 1885.36 1808 1918.69V2024.86C1808 2058.19 1799.3 2083.56 1781.9 2100.96C1764.79 2118.07 1739.57 2126.62 1706.24 2126.62H1533.7V1816.93H1706.24ZM1728.36 1918.69C1728.36 1892.14 1715.09 1878.87 1688.55 1878.87H1613.34V2064.68H1688.55C1715.09 2064.68 1728.36 2051.41 1728.36 2024.86V1918.69ZM2091.02 1816.93L2144.11 2016.02L2190.57 1816.93H2276.84L2192.78 2126.62H2108.72L2055.63 1934.17L2002.54 2126.62H1918.48L1834.42 1816.93H1920.69L1967.15 2016.02L2020.24 1816.93H2091.02ZM2345.7 2126.62H2259.43L2376.67 1816.93H2465.16L2582.4 2126.62H2496.12L2476.22 2071.32H2365.61L2345.7 2126.62ZM2385.52 2013.8H2456.31L2420.91 1909.84L2385.52 2013.8ZM2617.77 1816.93H2803.59C2834.55 1816.93 2856.97 1824.01 2870.83 1838.17C2884.99 1852.03 2892.07 1874.44 2892.07 1905.41V1945.23C2892.07 1969.71 2887.94 1988.73 2879.68 2002.3C2871.72 2015.87 2858.89 2024.86 2841.19 2029.29L2896.49 2126.62H2810.22L2759.34 2033.71H2697.41V2126.62H2617.77V1816.93ZM2812.43 1905.41C2812.43 1887.72 2803.59 1878.87 2785.89 1878.87H2697.41V1971.78H2785.89C2803.59 1971.78 2812.43 1962.93 2812.43 1945.23V1905.41ZM3122 1816.93C3155.33 1816.93 3180.55 1825.63 3197.66 1843.03C3215.06 1860.14 3223.76 1885.36 3223.76 1918.69V2024.86C3223.76 2058.19 3215.06 2083.56 3197.66 2100.96C3180.55 2118.07 3155.33 2126.62 3122 2126.62H2949.46V1816.93H3122ZM3144.12 1918.69C3144.12 1892.14 3130.85 1878.87 3104.31 1878.87H3029.1V2064.68H3104.31C3130.85 2064.68 3144.12 2051.41 3144.12 2024.86V1918.69Z" fill="#39383E"/>
<path d="M3506.7 2126.62H3427.06V1816.93H3672.6V1878.87H3506.7V1951.87H3637.21V2013.8H3506.7V2126.62ZM3962.38 2126.62H3716.84V1816.93H3962.38V1878.87H3796.48V1938.59H3926.99V2000.53H3796.48V2064.68H3962.38V2126.62ZM4010.94 1816.93H4196.76C4227.73 1816.93 4250.14 1824.01 4264.01 1838.17C4278.16 1852.03 4285.24 1874.44 4285.24 1905.41V1945.23C4285.24 1969.71 4281.11 1988.73 4272.85 2002.3C4264.89 2015.87 4252.06 2024.86 4234.36 2029.29L4289.67 2126.62H4203.39L4152.52 2033.71H4090.58V2126.62H4010.94V1816.93ZM4205.61 1905.41C4205.61 1887.72 4196.76 1878.87 4179.06 1878.87H4090.58V1971.78H4179.06C4196.76 1971.78 4205.61 1962.93 4205.61 1945.23V1905.41ZM4612.51 2126.62H4528.45L4422.27 1940.81V2126.62H4342.63V1816.93H4426.69L4532.87 2002.74V1816.93H4612.51V2126.62ZM4734.38 2126.62H4648.11L4765.35 1816.93H4853.83L4971.07 2126.62H4884.8L4864.89 2071.32H4754.29L4734.38 2126.62ZM4774.2 2013.8H4844.98L4809.59 1909.84L4774.2 2013.8ZM5276.32 2126.62H5192.26L5086.08 1940.81V2126.62H5006.45V1816.93H5090.5L5196.68 2002.74V1816.93H5276.32V2126.62ZM5515.43 1816.93C5548.76 1816.93 5573.98 1825.63 5591.08 1843.03C5608.48 1860.14 5617.18 1885.36 5617.18 1918.69V2024.86C5617.18 2058.19 5608.48 2083.56 5591.08 2100.96C5573.98 2118.07 5548.76 2126.62 5515.43 2126.62H5342.89V1816.93H5515.43ZM5537.55 1918.69C5537.55 1892.14 5524.28 1878.87 5497.73 1878.87H5422.52V2064.68H5497.73C5524.28 2064.68 5537.55 2051.41 5537.55 2024.86V1918.69ZM5920.12 2126.62H5674.58V1816.93H5920.12V1878.87H5754.21V1938.59H5884.72V2000.53H5754.21V2064.68H5920.12V2126.62ZM6203.16 1878.87L6048.31 2064.68H6203.16V2126.62H5950.98V2064.68L6105.83 1878.87H5950.98V1816.93H6203.16V1878.87Z" fill="#338EE7"/>
<path d="M1284.02 2308.37V2319.52H1238.37V2354.93H1275.44V2366.08H1238.37V2413.4H1224.66V2308.37H1284.02ZM1410.73 2330.83V2413.4H1397.02V2401.19C1394.41 2405.41 1390.74 2408.73 1386.02 2411.14C1381.4 2413.45 1376.27 2414.6 1370.65 2414.6C1364.22 2414.6 1358.44 2413.3 1353.32 2410.68C1348.2 2407.97 1344.13 2403.95 1341.12 2398.63C1338.2 2393.31 1336.75 2386.83 1336.75 2379.19V2330.83H1350.31V2377.38C1350.31 2385.52 1352.37 2391.8 1356.49 2396.22C1360.6 2400.54 1366.23 2402.7 1373.36 2402.7C1380.69 2402.7 1386.47 2400.44 1390.69 2395.92C1394.91 2391.4 1397.02 2384.82 1397.02 2376.18V2330.83H1410.73ZM1484.51 2301.9V2413.4H1470.8V2301.9H1484.51ZM1558.51 2301.9V2413.4H1544.79V2301.9H1558.51ZM1648.02 2414.75C1641.69 2414.75 1636.02 2413.7 1630.99 2411.59C1625.97 2409.38 1622 2406.36 1619.09 2402.55C1616.18 2398.63 1614.57 2394.16 1614.27 2389.14H1628.43C1628.84 2393.26 1630.74 2396.62 1634.16 2399.23C1637.67 2401.84 1642.25 2403.15 1647.87 2403.15C1653.09 2403.15 1657.21 2402 1660.23 2399.68C1663.24 2397.37 1664.75 2394.46 1664.75 2390.95C1664.75 2387.33 1663.14 2384.67 1659.92 2382.96C1656.71 2381.15 1651.74 2379.39 1645.01 2377.69C1638.88 2376.08 1633.86 2374.47 1629.94 2372.86C1626.12 2371.16 1622.81 2368.7 1620 2365.48C1617.28 2362.17 1615.93 2357.85 1615.93 2352.52C1615.93 2348.3 1617.18 2344.44 1619.69 2340.92C1622.21 2337.4 1625.77 2334.64 1630.39 2332.63C1635.01 2330.52 1640.29 2329.47 1646.21 2329.47C1655.35 2329.47 1662.74 2331.78 1668.36 2336.4C1673.99 2341.02 1677 2347.35 1677.4 2355.39H1663.69C1663.39 2351.07 1661.63 2347.6 1658.42 2344.99C1655.3 2342.38 1651.09 2341.07 1645.76 2341.07C1640.84 2341.07 1636.92 2342.13 1634.01 2344.24C1631.1 2346.35 1629.64 2349.11 1629.64 2352.52C1629.64 2355.24 1630.49 2357.5 1632.2 2359.3C1634.01 2361.01 1636.22 2362.42 1638.83 2363.52C1641.54 2364.53 1645.26 2365.68 1649.98 2366.99C1655.91 2368.6 1660.73 2370.2 1664.45 2371.81C1668.16 2373.32 1671.33 2375.63 1673.94 2378.74C1676.65 2381.85 1678.06 2385.92 1678.16 2390.95C1678.16 2395.47 1676.9 2399.53 1674.39 2403.15C1671.88 2406.77 1668.31 2409.63 1663.69 2411.74C1659.17 2413.75 1653.95 2414.75 1648.02 2414.75ZM1751.15 2342.13V2390.79C1751.15 2394.81 1752.01 2397.68 1753.72 2399.38C1755.42 2400.99 1758.39 2401.79 1762.61 2401.79H1772.7V2413.4H1760.35C1752.71 2413.4 1746.99 2411.64 1743.17 2408.12C1739.35 2404.61 1737.44 2398.83 1737.44 2390.79V2342.13H1726.74V2330.83H1737.44V2310.03H1751.15V2330.83H1772.7V2342.13H1751.15ZM1821.11 2371.81C1821.11 2363.37 1822.81 2355.99 1826.23 2349.66C1829.65 2343.23 1834.32 2338.26 1840.24 2334.74C1846.27 2331.23 1852.95 2329.47 1860.28 2329.47C1867.52 2329.47 1873.79 2331.03 1879.12 2334.14C1884.44 2337.25 1888.41 2341.17 1891.02 2345.89V2330.83H1904.88V2413.4H1891.02V2398.03C1888.31 2402.85 1884.24 2406.87 1878.82 2410.08C1873.49 2413.2 1867.26 2414.75 1860.13 2414.75C1852.8 2414.75 1846.17 2412.94 1840.24 2409.33C1834.32 2405.71 1829.65 2400.64 1826.23 2394.11C1822.81 2387.58 1821.11 2380.15 1821.11 2371.81ZM1891.02 2371.96C1891.02 2365.73 1889.77 2360.31 1887.25 2355.69C1884.74 2351.07 1881.33 2347.55 1877.01 2345.14C1872.79 2342.63 1868.12 2341.37 1863 2341.37C1857.87 2341.37 1853.2 2342.58 1848.98 2344.99C1844.76 2347.4 1841.4 2350.92 1838.89 2355.54C1836.38 2360.16 1835.12 2365.58 1835.12 2371.81C1835.12 2378.14 1836.38 2383.66 1838.89 2388.38C1841.4 2393 1844.76 2396.57 1848.98 2399.08C1853.2 2401.49 1857.87 2402.7 1863 2402.7C1868.12 2402.7 1872.79 2401.49 1877.01 2399.08C1881.33 2396.57 1884.74 2393 1887.25 2388.38C1889.77 2383.66 1891.02 2378.19 1891.02 2371.96ZM1959.85 2371.96C1959.85 2363.42 1961.56 2355.99 1964.97 2349.66C1968.39 2343.23 1973.11 2338.26 1979.13 2334.74C1985.26 2331.23 1992.24 2329.47 2000.08 2329.47C2010.22 2329.47 2018.56 2331.93 2025.09 2336.85C2031.72 2341.77 2036.09 2348.61 2038.2 2357.34H2023.43C2022.03 2352.32 2019.27 2348.35 2015.15 2345.44C2011.13 2342.53 2006.11 2341.07 2000.08 2341.07C1992.24 2341.07 1985.92 2343.78 1981.09 2349.21C1976.27 2354.53 1973.86 2362.12 1973.86 2371.96C1973.86 2381.9 1976.27 2389.59 1981.09 2395.01C1985.92 2400.44 1992.24 2403.15 2000.08 2403.15C2006.11 2403.15 2011.13 2401.74 2015.15 2398.93C2019.16 2396.12 2021.93 2392.1 2023.43 2386.88H2038.2C2035.99 2395.32 2031.57 2402.1 2024.94 2407.22C2018.31 2412.24 2010.02 2414.75 2000.08 2414.75C1992.24 2414.75 1985.26 2412.99 1979.13 2409.48C1973.11 2405.96 1968.39 2400.99 1964.97 2394.56C1961.56 2388.13 1959.85 2380.6 1959.85 2371.96ZM2139.52 2413.4L2107.12 2376.93V2413.4H2093.41V2301.9H2107.12V2367.44L2138.92 2330.83H2158.05L2119.18 2371.96L2158.2 2413.4H2139.52ZM2337.85 2308.37V2385.97C2337.85 2394.61 2335.19 2401.54 2329.86 2406.77C2324.54 2411.89 2317.51 2414.45 2308.77 2414.45C2299.93 2414.45 2292.85 2411.84 2287.52 2406.62C2282.2 2401.29 2279.54 2394.06 2279.54 2384.92H2293.25C2293.35 2390.04 2294.65 2394.21 2297.17 2397.42C2299.78 2400.64 2303.64 2402.25 2308.77 2402.25C2313.89 2402.25 2317.71 2400.74 2320.22 2397.73C2322.73 2394.61 2323.99 2390.69 2323.99 2385.97V2308.37H2337.85ZM2435.08 2414.45C2428.14 2414.45 2421.92 2413.25 2416.39 2410.83C2410.97 2408.32 2406.7 2404.91 2403.58 2400.59C2400.47 2396.17 2398.86 2391.1 2398.76 2385.37H2413.38C2413.88 2390.29 2415.89 2394.46 2419.41 2397.88C2423.02 2401.19 2428.25 2402.85 2435.08 2402.85C2441.61 2402.85 2446.73 2401.24 2450.45 2398.03C2454.26 2394.71 2456.17 2390.49 2456.17 2385.37C2456.17 2381.35 2455.07 2378.09 2452.86 2375.58C2450.65 2373.07 2447.88 2371.16 2444.57 2369.85C2441.25 2368.54 2436.78 2367.14 2431.16 2365.63C2424.23 2363.82 2418.65 2362.02 2414.43 2360.21C2410.31 2358.4 2406.75 2355.59 2403.74 2351.77C2400.82 2347.85 2399.37 2342.63 2399.37 2336.1C2399.37 2330.37 2400.82 2325.3 2403.74 2320.88C2406.65 2316.46 2410.72 2313.05 2415.94 2310.63C2421.26 2308.22 2427.34 2307.02 2434.17 2307.02C2444.02 2307.02 2452.05 2309.48 2458.28 2314.4C2464.61 2319.32 2468.17 2325.85 2468.98 2333.99H2453.91C2453.41 2329.97 2451.3 2326.46 2447.58 2323.44C2443.87 2320.33 2438.94 2318.77 2432.82 2318.77C2427.09 2318.77 2422.42 2320.28 2418.8 2323.29C2415.19 2326.2 2413.38 2330.32 2413.38 2335.65C2413.38 2339.46 2414.43 2342.58 2416.54 2344.99C2418.75 2347.4 2421.41 2349.26 2424.53 2350.56C2427.74 2351.77 2432.21 2353.18 2437.94 2354.78C2444.87 2356.69 2450.45 2358.6 2454.66 2360.51C2458.88 2362.32 2462.5 2365.18 2465.51 2369.1C2468.53 2372.91 2470.03 2378.14 2470.03 2384.77C2470.03 2389.89 2468.68 2394.71 2465.97 2399.23C2463.25 2403.75 2459.23 2407.42 2453.91 2410.23C2448.59 2413.04 2442.31 2414.45 2435.08 2414.45ZM2636.91 2308.37C2648.36 2308.37 2658.26 2310.53 2666.59 2314.85C2675.03 2319.07 2681.46 2325.15 2685.88 2333.09C2690.4 2341.02 2692.66 2350.36 2692.66 2361.11C2692.66 2371.86 2690.4 2381.2 2685.88 2389.14C2681.46 2396.97 2675.03 2403 2666.59 2407.22C2658.26 2411.34 2648.36 2413.4 2636.91 2413.4H2604.21V2308.37H2636.91ZM2636.91 2402.1C2650.47 2402.1 2660.82 2398.53 2667.95 2391.4C2675.08 2384.17 2678.65 2374.07 2678.65 2361.11C2678.65 2348.05 2675.03 2337.86 2667.8 2330.52C2660.67 2323.19 2650.37 2319.52 2636.91 2319.52H2617.93V2402.1H2636.91ZM2823 2368.95C2823 2371.56 2822.85 2374.32 2822.55 2377.23H2756.55C2757.06 2385.37 2759.82 2391.75 2764.84 2396.37C2769.96 2400.89 2776.14 2403.15 2783.37 2403.15C2789.3 2403.15 2794.22 2401.79 2798.14 2399.08C2802.16 2396.27 2804.97 2392.55 2806.58 2387.93H2821.34C2819.13 2395.87 2814.71 2402.35 2808.08 2407.37C2801.46 2412.29 2793.22 2414.75 2783.37 2414.75C2775.54 2414.75 2768.51 2412.99 2762.28 2409.48C2756.15 2405.96 2751.33 2400.99 2747.81 2394.56C2744.3 2388.03 2742.54 2380.5 2742.54 2371.96C2742.54 2363.42 2744.25 2355.94 2747.66 2349.51C2751.08 2343.08 2755.85 2338.16 2761.98 2334.74C2768.21 2331.23 2775.34 2329.47 2783.37 2329.47C2791.21 2329.47 2798.14 2331.18 2804.17 2334.59C2810.19 2338.01 2814.82 2342.73 2818.03 2348.76C2821.34 2354.68 2823 2361.41 2823 2368.95ZM2808.84 2366.08C2808.84 2360.86 2807.68 2356.39 2805.37 2352.67C2803.06 2348.86 2799.9 2345.99 2795.88 2344.08C2791.96 2342.08 2787.59 2341.07 2782.77 2341.07C2775.84 2341.07 2769.91 2343.28 2764.99 2347.7C2760.17 2352.12 2757.41 2358.25 2756.7 2366.08H2808.84ZM2908.75 2400.74L2934.37 2330.83H2948.99L2916.59 2413.4H2900.62L2868.22 2330.83H2882.99L2908.75 2400.74ZM3093.66 2429.37H3079.95V2293.61H3093.66V2429.37ZM3247.74 2308.37V2374.82C3247.74 2384.17 3250 2391.1 3254.52 2395.62C3259.14 2400.14 3265.52 2402.4 3273.66 2402.4C3281.7 2402.4 3287.97 2400.14 3292.49 2395.62C3297.12 2391.1 3299.43 2384.17 3299.43 2374.82V2308.37H3313.14V2374.67C3313.14 2383.41 3311.38 2390.79 3307.86 2396.82C3304.35 2402.75 3299.58 2407.17 3293.55 2410.08C3287.62 2412.99 3280.94 2414.45 3273.51 2414.45C3266.08 2414.45 3259.35 2412.99 3253.32 2410.08C3247.39 2407.17 3242.67 2402.75 3239.16 2396.82C3235.74 2390.79 3234.03 2383.41 3234.03 2374.67V2308.37H3247.74ZM3386.64 2308.37V2413.4H3372.93V2308.37H3386.64ZM3498.15 2271.46L3456.87 2439.01H3443.31L3484.44 2271.46H3498.15ZM3568.91 2308.37V2374.82C3568.91 2384.17 3571.17 2391.1 3575.69 2395.62C3580.31 2400.14 3586.69 2402.4 3594.83 2402.4C3602.86 2402.4 3609.14 2400.14 3613.66 2395.62C3618.28 2391.1 3620.59 2384.17 3620.59 2374.82V2308.37H3634.3V2374.67C3634.3 2383.41 3632.55 2390.79 3629.03 2396.82C3625.51 2402.75 3620.74 2407.17 3614.72 2410.08C3608.79 2412.99 3602.11 2414.45 3594.68 2414.45C3587.24 2414.45 3580.51 2412.99 3574.48 2410.08C3568.56 2407.17 3563.84 2402.75 3560.32 2396.82C3556.91 2390.79 3555.2 2383.41 3555.2 2374.67V2308.37H3568.91ZM3737.04 2360.96L3769.28 2413.4H3753.76L3728.6 2372.41L3704.64 2413.4H3689.42L3721.52 2360.96L3689.27 2308.37H3704.64L3729.95 2349.51L3754.06 2308.37H3769.43L3737.04 2360.96ZM3934.38 2308.37C3945.83 2308.37 3955.72 2310.53 3964.06 2314.85C3972.5 2319.07 3978.93 2325.15 3983.35 2333.09C3987.87 2341.02 3990.13 2350.36 3990.13 2361.11C3990.13 2371.86 3987.87 2381.2 3983.35 2389.14C3978.93 2396.97 3972.5 2403 3964.06 2407.22C3955.72 2411.34 3945.83 2413.4 3934.38 2413.4H3901.68V2308.37H3934.38ZM3934.38 2402.1C3947.94 2402.1 3958.29 2398.53 3965.42 2391.4C3972.55 2384.17 3976.12 2374.07 3976.12 2361.11C3976.12 2348.05 3972.5 2337.86 3965.27 2330.52C3958.13 2323.19 3947.84 2319.52 3934.38 2319.52H3915.39V2402.1H3934.38ZM4120.47 2368.95C4120.47 2371.56 4120.32 2374.32 4120.02 2377.23H4054.02C4054.52 2385.37 4057.28 2391.75 4062.31 2396.37C4067.43 2400.89 4073.61 2403.15 4080.84 2403.15C4086.77 2403.15 4091.69 2401.79 4095.61 2399.08C4099.63 2396.27 4102.44 2392.55 4104.05 2387.93H4118.81C4116.6 2395.87 4112.18 2402.35 4105.55 2407.37C4098.92 2412.29 4090.69 2414.75 4080.84 2414.75C4073.01 2414.75 4065.97 2412.99 4059.75 2409.48C4053.62 2405.96 4048.8 2400.99 4045.28 2394.56C4041.77 2388.03 4040.01 2380.5 4040.01 2371.96C4040.01 2363.42 4041.71 2355.94 4045.13 2349.51C4048.55 2343.08 4053.32 2338.16 4059.44 2334.74C4065.67 2331.23 4072.8 2329.47 4080.84 2329.47C4088.68 2329.47 4095.61 2331.18 4101.63 2334.59C4107.66 2338.01 4112.28 2342.73 4115.5 2348.76C4118.81 2354.68 4120.47 2361.41 4120.47 2368.95ZM4106.31 2366.08C4106.31 2360.86 4105.15 2356.39 4102.84 2352.67C4100.53 2348.86 4097.37 2345.99 4093.35 2344.08C4089.43 2342.08 4085.06 2341.07 4080.24 2341.07C4073.31 2341.07 4067.38 2343.28 4062.46 2347.7C4057.64 2352.12 4054.87 2358.25 4054.17 2366.08H4106.31ZM4204.72 2414.75C4198.39 2414.75 4192.71 2413.7 4187.69 2411.59C4182.67 2409.38 4178.7 2406.36 4175.79 2402.55C4172.87 2398.63 4171.26 2394.16 4170.96 2389.14H4185.13C4185.53 2393.26 4187.44 2396.62 4190.85 2399.23C4194.37 2401.84 4198.94 2403.15 4204.56 2403.15C4209.79 2403.15 4213.91 2402 4216.92 2399.68C4219.93 2397.37 4221.44 2394.46 4221.44 2390.95C4221.44 2387.33 4219.83 2384.67 4216.62 2382.96C4213.4 2381.15 4208.43 2379.39 4201.7 2377.69C4195.57 2376.08 4190.55 2374.47 4186.63 2372.86C4182.82 2371.16 4179.5 2368.7 4176.69 2365.48C4173.98 2362.17 4172.62 2357.85 4172.62 2352.52C4172.62 2348.3 4173.88 2344.44 4176.39 2340.92C4178.9 2337.4 4182.47 2334.64 4187.09 2332.63C4191.71 2330.52 4196.98 2329.47 4202.91 2329.47C4212.05 2329.47 4219.43 2331.78 4225.06 2336.4C4230.68 2341.02 4233.7 2347.35 4234.1 2355.39H4220.39C4220.08 2351.07 4218.33 2347.6 4215.11 2344.99C4212 2342.38 4207.78 2341.07 4202.45 2341.07C4197.53 2341.07 4193.62 2342.13 4190.7 2344.24C4187.79 2346.35 4186.33 2349.11 4186.33 2352.52C4186.33 2355.24 4187.19 2357.5 4188.89 2359.3C4190.7 2361.01 4192.91 2362.42 4195.52 2363.52C4198.24 2364.53 4201.95 2365.68 4206.67 2366.99C4212.6 2368.6 4217.42 2370.2 4221.14 2371.81C4224.86 2373.32 4228.02 2375.63 4230.63 2378.74C4233.34 2381.85 4234.75 2385.92 4234.85 2390.95C4234.85 2395.47 4233.59 2399.53 4231.08 2403.15C4228.57 2406.77 4225.01 2409.63 4220.39 2411.74C4215.87 2413.75 4210.64 2414.75 4204.72 2414.75ZM4298.2 2317.42C4295.59 2317.42 4293.38 2316.51 4291.57 2314.7C4289.77 2312.89 4288.86 2310.68 4288.86 2308.07C4288.86 2305.46 4289.77 2303.25 4291.57 2301.44C4293.38 2299.64 4295.59 2298.73 4298.2 2298.73C4300.72 2298.73 4302.83 2299.64 4304.53 2301.44C4306.34 2303.25 4307.25 2305.46 4307.25 2308.07C4307.25 2310.68 4306.34 2312.89 4304.53 2314.7C4302.83 2316.51 4300.72 2317.42 4298.2 2317.42ZM4304.83 2330.83V2413.4H4291.12V2330.83H4304.83ZM4399.17 2329.47C4406.3 2329.47 4412.53 2331.03 4417.86 2334.14C4423.28 2337.25 4427.3 2341.17 4429.91 2345.89V2330.83H4443.77V2415.2C4443.77 2422.74 4442.17 2429.42 4438.95 2435.24C4435.74 2441.17 4431.12 2445.79 4425.09 2449.11C4419.16 2452.42 4412.23 2454.08 4404.3 2454.08C4393.45 2454.08 4384.41 2451.52 4377.17 2446.39C4369.94 2441.27 4365.67 2434.29 4364.37 2425.45H4377.93C4379.43 2430.47 4382.55 2434.49 4387.27 2437.5C4391.99 2440.62 4397.67 2442.18 4404.3 2442.18C4411.83 2442.18 4417.96 2439.82 4422.68 2435.09C4427.5 2430.37 4429.91 2423.74 4429.91 2415.2V2397.88C4427.2 2402.7 4423.18 2406.72 4417.86 2409.93C4412.53 2413.15 4406.3 2414.75 4399.17 2414.75C4391.84 2414.75 4385.16 2412.94 4379.13 2409.33C4373.21 2405.71 4368.53 2400.64 4365.12 2394.11C4361.7 2387.58 4360 2380.15 4360 2371.81C4360 2363.37 4361.7 2355.99 4365.12 2349.66C4368.53 2343.23 4373.21 2338.26 4379.13 2334.74C4385.16 2331.23 4391.84 2329.47 4399.17 2329.47ZM4429.91 2371.96C4429.91 2365.73 4428.66 2360.31 4426.14 2355.69C4423.63 2351.07 4420.22 2347.55 4415.9 2345.14C4411.68 2342.63 4407.01 2341.37 4401.88 2341.37C4396.76 2341.37 4392.09 2342.58 4387.87 2344.99C4383.65 2347.4 4380.29 2350.92 4377.78 2355.54C4375.27 2360.16 4374.01 2365.58 4374.01 2371.81C4374.01 2378.14 4375.27 2383.66 4377.78 2388.38C4380.29 2393 4383.65 2396.57 4387.87 2399.08C4392.09 2401.49 4396.76 2402.7 4401.88 2402.7C4407.01 2402.7 4411.68 2401.49 4415.9 2399.08C4420.22 2396.57 4423.63 2393 4426.14 2388.38C4428.66 2383.66 4429.91 2378.19 4429.91 2371.96ZM4544.09 2329.32C4554.14 2329.32 4562.27 2332.38 4568.5 2338.51C4574.73 2344.54 4577.84 2353.28 4577.84 2364.73V2413.4H4564.28V2366.69C4564.28 2358.45 4562.22 2352.17 4558.1 2347.85C4553.99 2343.43 4548.36 2341.22 4541.23 2341.22C4534 2341.22 4528.22 2343.48 4523.9 2348C4519.68 2352.52 4517.57 2359.1 4517.57 2367.74V2413.4H4503.86V2330.83H4517.57V2342.58C4520.28 2338.36 4523.95 2335.09 4528.57 2332.78C4533.29 2330.47 4538.47 2329.32 4544.09 2329.32ZM4712.5 2368.95C4712.5 2371.56 4712.34 2374.32 4712.04 2377.23H4646.05C4646.55 2385.37 4649.31 2391.75 4654.33 2396.37C4659.46 2400.89 4665.63 2403.15 4672.87 2403.15C4678.79 2403.15 4683.72 2401.79 4687.63 2399.08C4691.65 2396.27 4694.46 2392.55 4696.07 2387.93H4710.84C4708.63 2395.87 4704.21 2402.35 4697.58 2407.37C4690.95 2412.29 4682.71 2414.75 4672.87 2414.75C4665.03 2414.75 4658 2412.99 4651.77 2409.48C4645.64 2405.96 4640.82 2400.99 4637.31 2394.56C4633.79 2388.03 4632.03 2380.5 4632.03 2371.96C4632.03 2363.42 4633.74 2355.94 4637.16 2349.51C4640.57 2343.08 4645.34 2338.16 4651.47 2334.74C4657.7 2331.23 4664.83 2329.47 4672.87 2329.47C4680.7 2329.47 4687.63 2331.18 4693.66 2334.59C4699.69 2338.01 4704.31 2342.73 4707.52 2348.76C4710.84 2354.68 4712.5 2361.41 4712.5 2368.95ZM4698.33 2366.08C4698.33 2360.86 4697.18 2356.39 4694.87 2352.67C4692.56 2348.86 4689.39 2345.99 4685.37 2344.08C4681.46 2342.08 4677.09 2341.07 4672.26 2341.07C4665.33 2341.07 4659.41 2343.28 4654.48 2347.7C4649.66 2352.12 4646.9 2358.25 4646.2 2366.08H4698.33ZM4781.22 2344.24C4783.63 2339.51 4787.05 2335.85 4791.47 2333.24C4795.99 2330.62 4801.46 2329.32 4807.89 2329.32V2343.48H4804.28C4788.91 2343.48 4781.22 2351.82 4781.22 2368.49V2413.4H4767.51V2330.83H4781.22V2344.24Z" fill="#39383E"/>
<path d="M6554.04 3012.67V3033.66H6576.92V3040.42H6554.04V3062.04H6579.62V3068.79H6545.84V3005.92H6579.62V3012.67H6554.04ZM6588.96 3043.93C6588.96 3038.89 6589.98 3034.47 6592.03 3030.69C6594.07 3026.85 6596.86 3023.87 6600.4 3021.77C6604.01 3019.67 6608.03 3018.62 6612.47 3018.62C6616.32 3018.62 6619.89 3019.52 6623.19 3021.32C6626.5 3023.06 6629.02 3025.38 6630.76 3028.26V3002.14H6639.05V3068.79H6630.76V3059.51C6629.14 3062.46 6626.74 3064.89 6623.55 3066.81C6620.37 3068.67 6616.65 3069.6 6612.38 3069.6C6608 3069.6 6604.01 3068.52 6600.4 3066.36C6596.86 3064.2 6594.07 3061.17 6592.03 3057.26C6589.98 3053.36 6588.96 3048.92 6588.96 3043.93ZM6630.76 3044.02C6630.76 3040.3 6630.01 3037.06 6628.51 3034.29C6627.01 3031.53 6624.96 3029.43 6622.38 3027.99C6619.86 3026.49 6617.07 3025.74 6614 3025.74C6610.94 3025.74 6608.15 3026.46 6605.63 3027.9C6603.11 3029.34 6601.09 3031.44 6599.59 3034.2C6598.09 3036.97 6597.34 3040.21 6597.34 3043.93C6597.34 3047.71 6598.09 3051.02 6599.59 3053.84C6601.09 3056.6 6603.11 3058.73 6605.63 3060.24C6608.15 3061.68 6610.94 3062.4 6614 3062.4C6617.07 3062.4 6619.86 3061.68 6622.38 3060.24C6624.96 3058.73 6627.01 3056.6 6628.51 3053.84C6630.01 3051.02 6630.76 3047.74 6630.76 3044.02ZM6718.66 3019.43L6703.25 3068.79H6694.79L6682.89 3029.61L6671 3068.79H6662.54L6647.04 3019.43H6655.42L6666.77 3060.87L6679.02 3019.43H6687.4L6699.38 3060.96L6710.55 3019.43H6718.66ZM6723.73 3043.93C6723.73 3038.89 6724.75 3034.47 6726.79 3030.69C6728.83 3026.85 6731.63 3023.87 6735.17 3021.77C6738.77 3019.67 6742.76 3018.62 6747.15 3018.62C6751.47 3018.62 6755.23 3019.55 6758.41 3021.41C6761.59 3023.27 6763.96 3025.62 6765.52 3028.44V3019.43H6773.81V3068.79H6765.52V3059.61C6763.9 3062.49 6761.47 3064.89 6758.23 3066.81C6755.05 3068.67 6751.32 3069.6 6747.06 3069.6C6742.67 3069.6 6738.71 3068.52 6735.17 3066.36C6731.63 3064.2 6728.83 3061.17 6726.79 3057.26C6724.75 3053.36 6723.73 3048.92 6723.73 3043.93ZM6765.52 3044.02C6765.52 3040.3 6764.77 3037.06 6763.27 3034.29C6761.77 3031.53 6759.73 3029.43 6757.15 3027.99C6754.62 3026.49 6751.83 3025.74 6748.77 3025.74C6745.71 3025.74 6742.91 3026.46 6740.39 3027.9C6737.87 3029.34 6735.86 3031.44 6734.36 3034.2C6732.86 3036.97 6732.11 3040.21 6732.11 3043.93C6732.11 3047.71 6732.86 3051.02 6734.36 3053.84C6735.86 3056.6 6737.87 3058.73 6740.39 3060.24C6742.91 3061.68 6745.71 3062.4 6748.77 3062.4C6751.83 3062.4 6754.62 3061.68 6757.15 3060.24C6759.73 3058.73 6761.77 3056.6 6763.27 3053.84C6764.77 3051.02 6765.52 3047.74 6765.52 3044.02ZM6795.86 3027.45C6797.3 3024.62 6799.34 3022.43 6801.99 3020.87C6804.69 3019.31 6807.96 3018.53 6811.8 3018.53V3027H6809.64C6800.45 3027 6795.86 3031.98 6795.86 3041.95V3068.79H6787.66V3019.43H6795.86V3027.45ZM6818.2 3043.93C6818.2 3038.89 6819.23 3034.47 6821.27 3030.69C6823.31 3026.85 6826.1 3023.87 6829.64 3021.77C6833.25 3019.67 6837.27 3018.62 6841.71 3018.62C6845.56 3018.62 6849.13 3019.52 6852.43 3021.32C6855.74 3023.06 6858.26 3025.38 6860 3028.26V3002.14H6868.29V3068.79H6860V3059.51C6858.38 3062.46 6855.98 3064.89 6852.79 3066.81C6849.61 3068.67 6845.89 3069.6 6841.62 3069.6C6837.24 3069.6 6833.25 3068.52 6829.64 3066.36C6826.1 3064.2 6823.31 3061.17 6821.27 3057.26C6819.23 3053.36 6818.2 3048.92 6818.2 3043.93ZM6860 3044.02C6860 3040.3 6859.25 3037.06 6857.75 3034.29C6856.25 3031.53 6854.21 3029.43 6851.62 3027.99C6849.1 3026.49 6846.31 3025.74 6843.25 3025.74C6840.18 3025.74 6837.39 3026.46 6834.87 3027.9C6832.35 3029.34 6830.34 3031.44 6828.83 3034.2C6827.33 3036.97 6826.58 3040.21 6826.58 3043.93C6826.58 3047.71 6827.33 3051.02 6828.83 3053.84C6830.34 3056.6 6832.35 3058.73 6834.87 3060.24C6837.39 3061.68 6840.18 3062.4 6843.25 3062.4C6846.31 3062.4 6849.1 3061.68 6851.62 3060.24C6854.21 3058.73 6856.25 3056.6 6857.75 3053.84C6859.25 3051.02 6860 3047.74 6860 3044.02ZM6941.65 3006.01V3012.67H6914.35V3033.84H6936.51V3040.51H6914.35V3068.79H6906.16V3006.01H6941.65ZM6996.58 3042.22C6996.58 3043.78 6996.49 3045.43 6996.31 3047.17H6956.86C6957.16 3052.04 6958.81 3055.85 6961.81 3058.61C6964.88 3061.32 6968.57 3062.67 6972.89 3062.67C6976.44 3062.67 6979.38 3061.86 6981.72 3060.24C6984.12 3058.55 6985.81 3056.33 6986.77 3053.57H6995.59C6994.27 3058.31 6991.63 3062.19 6987.67 3065.19C6983.7 3068.13 6978.78 3069.6 6972.89 3069.6C6968.21 3069.6 6964.01 3068.55 6960.28 3066.45C6956.62 3064.35 6953.74 3061.38 6951.64 3057.53C6949.53 3053.63 6948.48 3049.13 6948.48 3044.02C6948.48 3038.92 6949.5 3034.44 6951.55 3030.6C6953.59 3026.76 6956.44 3023.81 6960.1 3021.77C6963.83 3019.67 6968.09 3018.62 6972.89 3018.62C6977.58 3018.62 6981.72 3019.64 6985.33 3021.68C6988.93 3023.72 6991.69 3026.55 6993.61 3030.15C6995.59 3033.69 6996.58 3037.72 6996.58 3042.22ZM6988.12 3040.51C6988.12 3037.39 6987.43 3034.71 6986.05 3032.49C6984.66 3030.21 6982.77 3028.5 6980.37 3027.36C6978.03 3026.16 6975.42 3025.56 6972.53 3025.56C6968.39 3025.56 6964.85 3026.88 6961.9 3029.52C6959.02 3032.16 6957.37 3035.82 6956.95 3040.51H6988.12ZM7015.6 3027.45C7017.04 3024.62 7019.08 3022.43 7021.73 3020.87C7024.43 3019.31 7027.7 3018.53 7031.55 3018.53V3027H7029.38C7020.2 3027 7015.6 3031.98 7015.6 3041.95V3068.79H7007.4V3019.43H7015.6V3027.45ZM7065.06 3018.53C7071.06 3018.53 7075.93 3020.36 7079.65 3024.02C7083.37 3027.63 7085.24 3032.85 7085.24 3039.7V3068.79H7077.13V3040.87C7077.13 3035.94 7075.9 3032.19 7073.44 3029.61C7070.97 3026.97 7067.61 3025.65 7063.35 3025.65C7059.02 3025.65 7055.57 3027 7052.99 3029.7C7050.47 3032.4 7049.21 3036.33 7049.21 3041.5V3068.79H7041.01V3019.43H7049.21V3026.46C7050.83 3023.93 7053.02 3021.98 7055.78 3020.6C7058.6 3019.22 7061.7 3018.53 7065.06 3018.53ZM7095.56 3043.93C7095.56 3038.89 7096.58 3034.47 7098.63 3030.69C7100.67 3026.85 7103.46 3023.87 7107 3021.77C7110.61 3019.67 7114.6 3018.62 7118.98 3018.62C7123.31 3018.62 7127.06 3019.55 7130.24 3021.41C7133.43 3023.27 7135.8 3025.62 7137.36 3028.44V3019.43H7145.65V3068.79H7137.36V3059.61C7135.74 3062.49 7133.31 3064.89 7130.06 3066.81C7126.88 3068.67 7123.16 3069.6 7118.89 3069.6C7114.51 3069.6 7110.55 3068.52 7107 3066.36C7103.46 3064.2 7100.67 3061.17 7098.63 3057.26C7096.58 3053.36 7095.56 3048.92 7095.56 3043.93ZM7137.36 3044.02C7137.36 3040.3 7136.61 3037.06 7135.11 3034.29C7133.61 3031.53 7131.56 3029.43 7128.98 3027.99C7126.46 3026.49 7123.67 3025.74 7120.61 3025.74C7117.54 3025.74 7114.75 3026.46 7112.23 3027.9C7109.71 3029.34 7107.69 3031.44 7106.19 3034.2C7104.69 3036.97 7103.94 3040.21 7103.94 3043.93C7103.94 3047.71 7104.69 3051.02 7106.19 3053.84C7107.69 3056.6 7109.71 3058.73 7112.23 3060.24C7114.75 3061.68 7117.54 3062.4 7120.61 3062.4C7123.67 3062.4 7126.46 3061.68 7128.98 3060.24C7131.56 3058.73 7133.61 3056.6 7135.11 3053.84C7136.61 3051.02 7137.36 3047.74 7137.36 3044.02ZM7183.55 3018.53C7189.56 3018.53 7194.42 3020.36 7198.14 3024.02C7201.87 3027.63 7203.73 3032.85 7203.73 3039.7V3068.79H7195.62V3040.87C7195.62 3035.94 7194.39 3032.19 7191.93 3029.61C7189.47 3026.97 7186.1 3025.65 7181.84 3025.65C7177.52 3025.65 7174.06 3027 7171.48 3029.7C7168.96 3032.4 7167.7 3036.33 7167.7 3041.5V3068.79H7159.5V3019.43H7167.7V3026.46C7169.32 3023.93 7171.51 3021.98 7174.27 3020.6C7177.09 3019.22 7180.19 3018.53 7183.55 3018.53ZM7214.05 3043.93C7214.05 3038.89 7215.08 3034.47 7217.12 3030.69C7219.16 3026.85 7221.95 3023.87 7225.49 3021.77C7229.1 3019.67 7233.12 3018.62 7237.57 3018.62C7241.41 3018.62 7244.98 3019.52 7248.28 3021.32C7251.59 3023.06 7254.11 3025.38 7255.85 3028.26V3002.14H7264.14V3068.79H7255.85V3059.51C7254.23 3062.46 7251.83 3064.89 7248.64 3066.81C7245.46 3068.67 7241.74 3069.6 7237.48 3069.6C7233.09 3069.6 7229.1 3068.52 7225.49 3066.36C7221.95 3064.2 7219.16 3061.17 7217.12 3057.26C7215.08 3053.36 7214.05 3048.92 7214.05 3043.93ZM7255.85 3044.02C7255.85 3040.3 7255.1 3037.06 7253.6 3034.29C7252.1 3031.53 7250.06 3029.43 7247.47 3027.99C7244.95 3026.49 7242.16 3025.74 7239.1 3025.74C7236.03 3025.74 7233.24 3026.46 7230.72 3027.9C7228.2 3029.34 7226.19 3031.44 7224.68 3034.2C7223.18 3036.97 7222.43 3040.21 7222.43 3043.93C7222.43 3047.71 7223.18 3051.02 7224.68 3053.84C7226.19 3056.6 7228.2 3058.73 7230.72 3060.24C7233.24 3061.68 7236.03 3062.4 7239.1 3062.4C7242.16 3062.4 7244.95 3061.68 7247.47 3060.24C7250.06 3058.73 7252.1 3056.6 7253.6 3053.84C7255.1 3051.02 7255.85 3047.74 7255.85 3044.02ZM7323.03 3042.22C7323.03 3043.78 7322.94 3045.43 7322.76 3047.17H7283.31C7283.61 3052.04 7285.26 3055.85 7288.26 3058.61C7291.32 3061.32 7295.02 3062.67 7299.34 3062.67C7302.88 3062.67 7305.82 3061.86 7308.17 3060.24C7310.57 3058.55 7312.25 3056.33 7313.21 3053.57H7322.04C7320.72 3058.31 7318.08 3062.19 7314.11 3065.19C7310.15 3068.13 7305.22 3069.6 7299.34 3069.6C7294.66 3069.6 7290.45 3068.55 7286.73 3066.45C7283.07 3064.35 7280.18 3061.38 7278.08 3057.53C7275.98 3053.63 7274.93 3049.13 7274.93 3044.02C7274.93 3038.92 7275.95 3034.44 7277.99 3030.6C7280.03 3026.76 7282.88 3023.81 7286.55 3021.77C7290.27 3019.67 7294.53 3018.62 7299.34 3018.62C7304.02 3018.62 7308.17 3019.64 7311.77 3021.68C7315.37 3023.72 7318.14 3026.55 7320.06 3030.15C7322.04 3033.69 7323.03 3037.72 7323.03 3042.22ZM7314.56 3040.51C7314.56 3037.39 7313.87 3034.71 7312.49 3032.49C7311.11 3030.21 7309.22 3028.5 7306.82 3027.36C7304.47 3026.16 7301.86 3025.56 7298.98 3025.56C7294.84 3025.56 7291.29 3026.88 7288.35 3029.52C7285.47 3032.16 7283.82 3035.82 7283.4 3040.51H7314.56ZM7339.97 3062.04H7364.21V3068.79H7330.61V3062.04L7354.57 3026.1H7330.79V3019.43H7364.03V3026.1L7339.97 3062.04Z" fill="#39383E"/>
<line x1="1145.49" y1="3040.46" x2="6460.09" y2="3040.46" stroke="#338EE7" stroke-width="11.2597"/>
<line x1="2339.02" y1="1093.84" x2="7372.13" y2="1093.84" stroke="#338EE7" stroke-width="11.2597"/>
<path d="M1200.95 1093.97C1202.09 1093.14 1202.65 1091.77 1202.65 1089.88C1202.69 1088.98 1202.5 1088.1 1202.11 1087.29C1201.75 1086.65 1201.22 1086.1 1200.58 1085.72C1199.91 1085.32 1199.16 1085.05 1198.39 1084.93C1197.54 1084.77 1196.68 1084.69 1195.84 1084.71H1186.56V1095.22H1196.6C1198.33 1095.24 1199.8 1094.81 1200.95 1093.97V1093.97ZM1202.5 1103.47C1201.21 1102.48 1199.48 1101.99 1197.33 1101.99H1186.54V1114.39H1197.12C1198.11 1114.39 1199.02 1114.3 1199.9 1114.12C1200.74 1113.95 1201.54 1113.63 1202.25 1113.17C1202.93 1112.73 1203.47 1112.14 1203.88 1111.37C1204.27 1110.61 1204.47 1109.63 1204.47 1108.46C1204.47 1106.12 1203.81 1104.47 1202.5 1103.47V1103.47ZM1213.05 1040.36C1180.4 1040.36 1153.93 1066.83 1153.93 1099.47C1153.93 1132.12 1180.4 1158.58 1213.05 1158.58C1245.69 1158.58 1272.16 1132.12 1272.16 1099.47C1272.16 1066.83 1245.69 1040.36 1213.05 1040.36ZM1224.46 1078.21H1242.72V1082.66H1224.46V1078.21ZM1213.05 1114.88C1212.19 1116.5 1210.97 1117.9 1209.48 1118.97C1207.93 1120.06 1206.2 1120.85 1204.36 1121.31C1202.44 1121.82 1200.46 1122.08 1198.48 1122.06H1176.63V1077.05H1197.87C1200.02 1077.05 1201.98 1077.25 1203.76 1077.62C1205.52 1077.99 1207.03 1078.62 1208.3 1079.48C1209.55 1080.34 1210.54 1081.49 1211.24 1082.91C1211.92 1084.32 1212.28 1086.09 1212.28 1088.19C1212.28 1090.46 1211.77 1092.33 1210.74 1093.85C1209.69 1095.37 1208.19 1096.59 1206.14 1097.56C1208.93 1098.35 1210.97 1099.76 1212.32 1101.74C1213.69 1103.75 1214.37 1106.15 1214.37 1108.97C1214.37 1111.27 1213.93 1113.23 1213.05 1114.88ZM1249.83 1107.92H1226.29C1226.29 1110.48 1227.18 1112.93 1228.51 1114.25C1229.86 1115.56 1231.78 1116.22 1234.3 1116.22C1236.12 1116.22 1237.67 1115.75 1238.99 1114.84C1240.29 1113.93 1241.09 1112.97 1241.38 1111.97H1249.27C1248 1115.89 1246.07 1118.68 1243.46 1120.37C1240.87 1122.06 1237.71 1122.91 1234.03 1122.91C1231.45 1122.91 1229.14 1122.48 1227.07 1121.68C1225.08 1120.9 1223.29 1119.71 1221.81 1118.18C1220.35 1116.61 1219.22 1114.76 1218.5 1112.75C1217.69 1110.52 1217.29 1108.17 1217.32 1105.8C1217.32 1103.36 1217.73 1101.09 1218.52 1098.98C1220.04 1094.88 1223.19 1091.59 1227.22 1089.89C1229.37 1088.99 1231.68 1088.55 1234.01 1088.57C1236.78 1088.57 1239.19 1089.1 1241.27 1090.18C1243.28 1091.21 1245.02 1092.7 1246.36 1094.51C1247.7 1096.32 1248.63 1098.38 1249.23 1100.7C1249.79 1102.98 1249.99 1105.38 1249.83 1107.92V1107.92ZM1233.74 1095.3C1232.31 1095.3 1231.11 1095.55 1230.19 1096.04C1229.26 1096.53 1228.5 1097.14 1227.92 1097.83C1227.36 1098.51 1226.95 1099.29 1226.72 1100.13C1226.5 1100.83 1226.36 1101.54 1226.31 1102.27H1240.89C1240.68 1099.99 1239.88 1098.3 1238.83 1097.11C1237.72 1095.93 1235.94 1095.3 1233.74 1095.3V1095.3Z" fill="#338EE7"/>
<path d="M1505.81 1040.36C1473.16 1040.36 1446.69 1066.83 1446.69 1099.47C1446.69 1132.12 1473.16 1158.58 1505.81 1158.58C1538.45 1158.58 1564.92 1132.12 1564.92 1099.47C1564.92 1066.83 1538.45 1040.36 1505.81 1040.36ZM1534.21 1084.92C1534.25 1085.54 1534.25 1086.18 1534.25 1086.82C1534.25 1106.19 1519.5 1128.5 1492.54 1128.5C1484.23 1128.5 1476.53 1126.09 1470.03 1121.93C1471.22 1122.06 1472.36 1122.11 1473.57 1122.11C1480.43 1122.11 1486.74 1119.79 1491.77 1115.86C1485.33 1115.73 1479.92 1111.5 1478.07 1105.7C1480.33 1106.03 1482.36 1106.03 1484.68 1105.44C1481.36 1104.76 1478.38 1102.96 1476.25 1100.34C1474.11 1097.72 1472.94 1094.44 1472.95 1091.05V1090.87C1474.89 1091.96 1477.17 1092.64 1479.56 1092.73C1477.55 1091.39 1475.91 1089.58 1474.77 1087.45C1473.63 1085.32 1473.03 1082.95 1473.03 1080.54C1473.03 1077.8 1473.74 1075.31 1475.02 1073.15C1478.7 1077.68 1483.29 1081.38 1488.5 1084.02C1493.71 1086.66 1499.41 1088.18 1505.24 1088.47C1503.17 1078.5 1510.61 1070.44 1519.55 1070.44C1523.78 1070.44 1527.58 1072.21 1530.26 1075.06C1533.57 1074.44 1536.73 1073.2 1539.56 1071.54C1538.46 1074.93 1536.17 1077.79 1533.12 1079.6C1536.07 1079.28 1538.92 1078.46 1541.56 1077.32C1539.57 1080.25 1537.08 1082.85 1534.21 1084.92V1084.92Z" fill="#338EE7"/>
<g clip-path="url(#clip1_308_32)">
<path d="M1798.56 1031.91C1761.24 1031.91 1731 1062.14 1731 1099.47C1731 1129.36 1750.34 1154.61 1777.2 1163.56C1780.57 1164.15 1781.84 1162.13 1781.84 1160.35C1781.84 1158.75 1781.76 1153.43 1781.76 1147.77C1764.78 1150.9 1760.39 1143.63 1759.04 1139.83C1758.28 1137.89 1754.99 1131.89 1752.12 1130.29C1749.75 1129.02 1746.37 1125.9 1752.03 1125.81C1757.35 1125.73 1761.15 1130.71 1762.42 1132.74C1768.5 1142.96 1778.21 1140.09 1782.09 1138.31C1782.69 1133.92 1784.46 1130.97 1786.4 1129.28C1771.37 1127.59 1755.66 1121.76 1755.66 1095.92C1755.66 1088.57 1758.28 1082.49 1762.59 1077.76C1761.91 1076.07 1759.55 1069.15 1763.26 1059.86C1763.26 1059.86 1768.92 1058.09 1781.84 1066.79C1787.25 1065.27 1792.99 1064.51 1798.73 1064.51C1804.47 1064.51 1810.22 1065.27 1815.62 1066.79C1828.54 1058 1834.2 1059.86 1834.2 1059.86C1837.91 1069.15 1835.55 1076.07 1834.87 1077.76C1839.18 1082.49 1841.8 1088.49 1841.8 1095.92C1841.8 1121.85 1826.01 1127.59 1810.98 1129.28C1813.42 1131.39 1815.54 1135.44 1815.54 1141.78C1815.54 1150.81 1815.45 1158.07 1815.45 1160.35C1815.45 1162.13 1816.72 1164.24 1820.1 1163.56C1833.51 1159.04 1845.16 1150.42 1853.42 1138.92C1861.68 1127.42 1866.12 1113.62 1866.12 1099.47C1866.12 1062.14 1835.89 1031.91 1798.56 1031.91Z" fill="#338EE7"/>
</g>
<g clip-path="url(#clip2_308_32)">
<path fill-rule="evenodd" clip-rule="evenodd" d="M2023.76 1099.84C2023.76 1133.43 2048.15 1161.36 2080.06 1167.03V1118.23H2063.17V1099.47H2080.06V1084.45C2080.06 1067.56 2090.94 1058.18 2106.33 1058.18C2111.21 1058.18 2116.46 1058.93 2121.34 1059.68V1076.95H2112.71C2104.45 1076.95 2102.57 1081.07 2102.57 1086.33V1099.47H2120.59L2117.59 1118.23H2102.57V1167.03C2134.48 1161.36 2158.87 1133.44 2158.87 1099.84C2158.87 1062.48 2128.47 1031.91 2091.31 1031.91C2054.16 1031.91 2023.76 1062.48 2023.76 1099.84Z" fill="#338EE7"/>
</g>
</g>
<defs>
<filter id="filter0_d_308_32" x="0.845032" y="0.371235" width="10959.3" height="4182.03" filterUnits="userSpaceOnUse" color-interpolation-filters="sRGB">
<feFlood flood-opacity="0" result="BackgroundImageFix"/>
<feColorMatrix in="SourceAlpha" type="matrix" values="0 0 0 0 0 0 0 0 0 0 0 0 0 0 0 0 0 0 127 0" result="hardAlpha"/>
<feOffset dy="34.5262"/>
<feGaussianBlur stdDeviation="431.577"/>
<feComposite in2="hardAlpha" operator="out"/>
<feColorMatrix type="matrix" values="0 0 0 0 0 0 0 0 0 0 0 0 0 0 0 0 0 0 0.18 0"/>
<feBlend mode="normal" in2="BackgroundImageFix" result="effect1_dropShadow_308_32"/>
<feBlend mode="normal" in="SourceGraphic" in2="effect1_dropShadow_308_32" result="shape"/>
</filter>
<filter id="filter1_d_308_32" x="9077.28" y="393.678" width="1696.11" height="3307.53" filterUnits="userSpaceOnUse" color-interpolation-filters="sRGB">
<feFlood flood-opacity="0" result="BackgroundImageFix"/>
<feColorMatrix in="SourceAlpha" type="matrix" values="0 0 0 0 0 0 0 0 0 0 0 0 0 0 0 0 0 0 127 0" result="hardAlpha"/>
<feOffset/>
<feGaussianBlur stdDeviation="18.6704"/>
<feComposite in2="hardAlpha" operator="out"/>
<feColorMatrix type="matrix" values="0 0 0 0 0.0588235 0 0 0 0 0.427451 0 0 0 0 0.733333 0 0 0 1 0"/>
<feBlend mode="normal" in2="BackgroundImageFix" result="effect1_dropShadow_308_32"/>
<feBlend mode="normal" in="SourceGraphic" in2="effect1_dropShadow_308_32" result="shape"/>
</filter>
<filter id="filter2_d_308_32" x="7013.7" y="113.471" width="2014.93" height="3886.85" filterUnits="userSpaceOnUse" color-interpolation-filters="sRGB">
<feFlood flood-opacity="0" result="BackgroundImageFix"/>
<feColorMatrix in="SourceAlpha" type="matrix" values="0 0 0 0 0 0 0 0 0 0 0 0 0 0 0 0 0 0 127 0" result="hardAlpha"/>
<feOffset/>
<feGaussianBlur stdDeviation="18.6704"/>
<feComposite in2="hardAlpha" operator="out"/>
<feColorMatrix type="matrix" values="0 0 0 0 0.0588235 0 0 0 0 0.427451 0 0 0 0 0.733333 0 0 0 1 0"/>
<feBlend mode="normal" in2="BackgroundImageFix" result="effect1_dropShadow_308_32"/>
<feBlend mode="normal" in="SourceGraphic" in2="effect1_dropShadow_308_32" result="shape"/>
</filter>
<linearGradient id="paint0_linear_308_32" x1="1981.72" y1="1005.78" x2="1954.96" y2="5300.14" gradientUnits="userSpaceOnUse">
<stop stop-color="#0457D2"/>
<stop offset="1" stop-color="#14AAFF" stop-opacity="0.58"/>
</linearGradient>
<linearGradient id="paint1_linear_308_32" x1="1954.78" y1="354.263" x2="1954.78" y2="5300.14" gradientUnits="userSpaceOnUse">
<stop stop-color="#F1F1F1"/>
<stop offset="1" stop-color="#00C2FF" stop-opacity="0.71"/>
</linearGradient>
<linearGradient id="paint2_linear_308_32" x1="2266.57" y1="859.04" x2="2239.8" y2="5153.41" gradientUnits="userSpaceOnUse">
<stop stop-color="#0457D2"/>
<stop offset="1" stop-color="#14AAFF" stop-opacity="0.58"/>
</linearGradient>
<linearGradient id="paint3_linear_308_32" x1="2239.62" y1="207.527" x2="2239.62" y2="5153.41" gradientUnits="userSpaceOnUse">
<stop stop-color="#F1F1F1"/>
<stop offset="1" stop-color="#00C2FF" stop-opacity="0.71"/>
</linearGradient>
<linearGradient id="paint4_linear_308_32" x1="9343.74" y1="611.167" x2="9343.74" y2="3528.35" gradientUnits="userSpaceOnUse">
<stop stop-color="#0457D2"/>
<stop offset="1" stop-color="#0E6CBC"/>
</linearGradient>
<linearGradient id="paint5_linear_308_32" x1="9536.94" y1="3712.7" x2="9536.94" y2="425.274" gradientUnits="userSpaceOnUse">
<stop stop-color="#0457D2"/>
<stop offset="1" stop-color="#0E6CBC"/>
</linearGradient>
<linearGradient id="paint6_linear_308_32" x1="8784.57" y1="1076.65" x2="8770.17" y2="3378.13" gradientUnits="userSpaceOnUse">
<stop stop-color="#0457D2"/>
<stop offset="1" stop-color="#14AAFF" stop-opacity="0.58"/>
</linearGradient>
<linearGradient id="paint7_linear_308_32" x1="8770.17" y1="727.484" x2="8770.17" y2="3378.12" gradientUnits="userSpaceOnUse">
<stop stop-color="#F1F1F1"/>
<stop offset="1" stop-color="#00C2FF" stop-opacity="0.71"/>
</linearGradient>
<clipPath id="clip0_308_32">
<rect width="9232.99" height="2455.72" fill="white" transform="translate(864 829)"/>
</clipPath>
<clipPath id="clip1_308_32">
<rect width="135.117" height="135.117" fill="white" transform="translate(1731 1031.91)"/>
</clipPath>
<clipPath id="clip2_308_32">
<rect width="135.117" height="135.117" fill="white" transform="translate(2023.76 1031.91)"/>
</clipPath>
</defs>
</svg>
