<svg width="2880" height="766" viewBox="0 0 2880 766" fill="none" xmlns="http://www.w3.org/2000/svg">
<g clip-path="url(#clip0)">
<rect width="2880" height="766" fill="#141B20"/>
<path d="M1249.5 330.995V341H1191.08V260.5H1247.89V270.505H1202.58V295.23H1242.94V305.005H1202.58V330.995H1249.5ZM1272.12 260.5H1306.04C1314.55 260.5 1322.1 262.187 1328.7 265.56C1335.29 268.933 1340.39 273.687 1343.99 279.82C1347.67 285.877 1349.51 292.853 1349.51 300.75C1349.51 308.647 1347.67 315.662 1343.99 321.795C1340.39 327.852 1335.29 332.567 1328.7 335.94C1322.1 339.313 1314.55 341 1306.04 341H1272.12V260.5ZM1305.35 330.995C1311.87 330.995 1317.58 329.73 1322.49 327.2C1327.47 324.67 1331.3 321.143 1333.99 316.62C1336.67 312.02 1338.01 306.73 1338.01 300.75C1338.01 294.77 1336.67 289.518 1333.99 284.995C1331.3 280.395 1327.47 276.83 1322.49 274.3C1317.58 271.77 1311.87 270.505 1305.35 270.505H1283.62V330.995H1305.35ZM1482.28 260.5L1455.37 341H1443.29L1421.33 276.715L1399.36 341H1387.06L1360.15 260.5H1371.99L1393.73 325.935L1416.38 260.5H1426.96L1449.16 326.28L1471.35 260.5H1482.28ZM1549.05 320.875H1506.27L1497.42 341H1485.57L1522.03 260.5H1533.41L1569.98 341H1557.91L1549.05 320.875ZM1545.03 311.675L1527.66 272.23L1510.3 311.675H1545.03ZM1639.81 341L1622.45 316.275C1620.3 316.428 1618.61 316.505 1617.39 316.505H1597.49V341H1585.99V260.5H1617.39C1627.81 260.5 1636.02 262.992 1642 267.975C1647.98 272.958 1650.97 279.82 1650.97 288.56C1650.97 294.77 1649.43 300.06 1646.37 304.43C1643.3 308.8 1638.93 311.982 1633.26 313.975L1652.35 341H1639.81ZM1617.04 306.73C1624.32 306.73 1629.88 305.158 1633.72 302.015C1637.55 298.872 1639.47 294.387 1639.47 288.56C1639.47 282.733 1637.55 278.287 1633.72 275.22C1629.88 272.077 1624.32 270.505 1617.04 270.505H1597.49V306.73H1617.04ZM1673.55 260.5H1707.47C1715.98 260.5 1723.53 262.187 1730.13 265.56C1736.72 268.933 1741.82 273.687 1745.42 279.82C1749.1 285.877 1750.94 292.853 1750.94 300.75C1750.94 308.647 1749.1 315.662 1745.42 321.795C1741.82 327.852 1736.72 332.567 1730.13 335.94C1723.53 339.313 1715.98 341 1707.47 341H1673.55V260.5ZM1706.78 330.995C1713.3 330.995 1719.01 329.73 1723.92 327.2C1728.9 324.67 1732.73 321.143 1735.42 316.62C1738.1 312.02 1739.44 306.73 1739.44 300.75C1739.44 294.77 1738.1 289.518 1735.42 284.995C1732.73 280.395 1728.9 276.83 1723.92 274.3C1719.01 271.77 1713.3 270.505 1706.78 270.505H1685.05V330.995H1706.78ZM1202.58 391.505V419.565H1242.94V429.455H1202.58V462H1191.08V381.5H1247.89V391.505H1202.58ZM1326.49 451.995V462H1268.07V381.5H1324.88V391.505H1279.57V416.23H1319.94V426.005H1279.57V451.995H1326.49ZM1402.93 462L1385.57 437.275C1383.42 437.428 1381.74 437.505 1380.51 437.505H1360.61V462H1349.11V381.5H1380.51C1390.94 381.5 1399.14 383.992 1405.12 388.975C1411.1 393.958 1414.09 400.82 1414.09 409.56C1414.09 415.77 1412.56 421.06 1409.49 425.43C1406.42 429.8 1402.05 432.982 1396.38 434.975L1415.47 462H1402.93ZM1380.16 427.73C1387.45 427.73 1393.01 426.158 1396.84 423.015C1400.67 419.872 1402.59 415.387 1402.59 409.56C1402.59 403.733 1400.67 399.287 1396.84 396.22C1393.01 393.077 1387.45 391.505 1380.16 391.505H1360.61V427.73H1380.16ZM1505.9 381.5V462H1496.47L1448.17 401.97V462H1436.67V381.5H1446.1L1494.4 441.53V381.5H1505.9ZM1585.28 441.875H1542.5L1533.65 462H1521.8L1558.26 381.5H1569.64L1606.21 462H1594.14L1585.28 441.875ZM1581.26 432.675L1563.89 393.23L1546.53 432.675H1581.26ZM1691.45 381.5V462H1682.02L1633.72 401.97V462H1622.22V381.5H1631.65L1679.95 441.53V381.5H1691.45ZM1719.55 381.5H1753.47C1761.98 381.5 1769.53 383.187 1776.13 386.56C1782.72 389.933 1787.82 394.687 1791.42 400.82C1795.1 406.877 1796.94 413.853 1796.94 421.75C1796.94 429.647 1795.1 436.662 1791.42 442.795C1787.82 448.852 1782.72 453.567 1776.13 456.94C1769.53 460.313 1761.98 462 1753.47 462H1719.55V381.5ZM1752.78 451.995C1759.3 451.995 1765.01 450.73 1769.92 448.2C1774.9 445.67 1778.73 442.143 1781.42 437.62C1784.1 433.02 1785.44 427.73 1785.44 421.75C1785.44 415.77 1784.1 410.518 1781.42 405.995C1778.73 401.395 1774.9 397.83 1769.92 395.3C1765.01 392.77 1759.3 391.505 1752.78 391.505H1731.05V451.995H1752.78ZM1876.98 451.995V462H1818.56V381.5H1875.37V391.505H1830.06V416.23H1870.42V426.005H1830.06V451.995H1876.98ZM1959.74 451.995V462H1892.47V454.18L1943.07 391.505H1893.27V381.5H1958.25V389.32L1907.88 451.995H1959.74ZM2012.45 376.67H2023.49V462H2012.45V376.67ZM2048.57 376.67H2059.61V462H2048.57V376.67Z" fill="#C7D4E7"/>
<path d="M1194.72 516.104V526.004H1207.75V528.308H1194.72V539H1192.06V513.8H1209.34V516.104H1194.72ZM1234.73 520.064V539H1232.28V535.544C1231.61 536.696 1230.68 537.596 1229.51 538.244C1228.33 538.868 1226.99 539.18 1225.48 539.18C1223 539.18 1221.05 538.496 1219.61 537.128C1218.19 535.736 1217.48 533.708 1217.48 531.044V520.064H1220.04V530.792C1220.04 532.784 1220.53 534.296 1221.52 535.328C1222.5 536.36 1223.9 536.876 1225.73 536.876C1227.72 536.876 1229.29 536.276 1230.44 535.076C1231.6 533.852 1232.17 532.16 1232.17 530V520.064H1234.73ZM1245.89 512.288H1248.44V539H1245.89V512.288ZM1259.55 512.288H1262.11V539H1259.55V512.288ZM1294.13 539.216C1292.26 539.216 1290.46 538.916 1288.73 538.316C1287.03 537.716 1285.71 536.924 1284.77 535.94L1285.82 533.888C1286.73 534.8 1287.94 535.544 1289.45 536.12C1290.96 536.672 1292.52 536.948 1294.13 536.948C1296.39 536.948 1298.08 536.54 1299.21 535.724C1300.34 534.884 1300.9 533.804 1300.9 532.484C1300.9 531.476 1300.59 530.672 1299.96 530.072C1299.36 529.472 1298.62 529.016 1297.73 528.704C1296.84 528.368 1295.61 528.008 1294.02 527.624C1292.13 527.144 1290.62 526.688 1289.49 526.256C1288.36 525.8 1287.39 525.116 1286.57 524.204C1285.78 523.292 1285.38 522.056 1285.38 520.496C1285.38 519.224 1285.72 518.072 1286.39 517.04C1287.06 515.984 1288.1 515.144 1289.49 514.52C1290.88 513.896 1292.61 513.584 1294.67 513.584C1296.11 513.584 1297.52 513.788 1298.88 514.196C1300.28 514.58 1301.48 515.12 1302.48 515.816L1301.58 517.94C1300.53 517.244 1299.4 516.728 1298.2 516.392C1297 516.032 1295.82 515.852 1294.67 515.852C1292.46 515.852 1290.8 516.284 1289.67 517.148C1288.56 517.988 1288.01 519.08 1288.01 520.424C1288.01 521.432 1288.31 522.248 1288.91 522.872C1289.54 523.472 1290.3 523.94 1291.22 524.276C1292.15 524.588 1293.4 524.936 1294.96 525.32C1296.81 525.776 1298.3 526.232 1299.42 526.688C1300.58 527.12 1301.55 527.792 1302.34 528.704C1303.13 529.592 1303.53 530.804 1303.53 532.34C1303.53 533.612 1303.18 534.776 1302.48 535.832C1301.81 536.864 1300.77 537.692 1299.35 538.316C1297.94 538.916 1296.2 539.216 1294.13 539.216ZM1322.76 537.848C1322.28 538.28 1321.68 538.616 1320.96 538.856C1320.27 539.072 1319.54 539.18 1318.77 539.18C1316.99 539.18 1315.62 538.7 1314.66 537.74C1313.7 536.78 1313.22 535.424 1313.22 533.672V522.224H1309.84V520.064H1313.22V515.924H1315.78V520.064H1321.54V522.224H1315.78V533.528C1315.78 534.656 1316.06 535.52 1316.61 536.12C1317.18 536.696 1318 536.984 1319.06 536.984C1319.58 536.984 1320.09 536.9 1320.57 536.732C1321.07 536.564 1321.5 536.324 1321.86 536.012L1322.76 537.848ZM1338.04 519.92C1340.51 519.92 1342.41 520.544 1343.73 521.792C1345.05 523.016 1345.71 524.84 1345.71 527.264V539H1343.26V536.048C1342.69 537.032 1341.83 537.8 1340.71 538.352C1339.6 538.904 1338.28 539.18 1336.75 539.18C1334.63 539.18 1332.95 538.676 1331.71 537.668C1330.46 536.66 1329.83 535.328 1329.83 533.672C1329.83 532.064 1330.41 530.768 1331.56 529.784C1332.74 528.8 1334.6 528.308 1337.14 528.308H1343.15V527.156C1343.15 525.524 1342.7 524.288 1341.79 523.448C1340.87 522.584 1339.54 522.152 1337.79 522.152C1336.59 522.152 1335.44 522.356 1334.33 522.764C1333.23 523.148 1332.28 523.688 1331.49 524.384L1330.34 522.476C1331.3 521.66 1332.45 521.036 1333.79 520.604C1335.14 520.148 1336.55 519.92 1338.04 519.92ZM1337.14 537.164C1338.58 537.164 1339.82 536.84 1340.85 536.192C1341.88 535.52 1342.65 534.56 1343.15 533.312V530.216H1337.21C1333.97 530.216 1332.35 531.344 1332.35 533.6C1332.35 534.704 1332.77 535.58 1333.61 536.228C1334.45 536.852 1335.63 537.164 1337.14 537.164ZM1364.57 539.18C1362.7 539.18 1361.02 538.772 1359.53 537.956C1358.07 537.14 1356.91 536 1356.07 534.536C1355.23 533.048 1354.81 531.38 1354.81 529.532C1354.81 527.684 1355.23 526.028 1356.07 524.564C1356.91 523.1 1358.07 521.96 1359.53 521.144C1361.02 520.328 1362.7 519.92 1364.57 519.92C1366.2 519.92 1367.65 520.244 1368.93 520.892C1370.22 521.516 1371.24 522.44 1371.99 523.664L1370.08 524.96C1369.45 524.024 1368.66 523.328 1367.7 522.872C1366.74 522.392 1365.7 522.152 1364.57 522.152C1363.2 522.152 1361.97 522.464 1360.86 523.088C1359.78 523.688 1358.93 524.552 1358.31 525.68C1357.71 526.808 1357.41 528.092 1357.41 529.532C1357.41 530.996 1357.71 532.292 1358.31 533.42C1358.93 534.524 1359.78 535.388 1360.86 536.012C1361.97 536.612 1363.2 536.912 1364.57 536.912C1365.7 536.912 1366.74 536.684 1367.7 536.228C1368.66 535.772 1369.45 535.076 1370.08 534.14L1371.99 535.436C1371.24 536.66 1370.22 537.596 1368.93 538.244C1367.63 538.868 1366.18 539.18 1364.57 539.18ZM1387.75 529.496L1383.28 533.6V539H1380.73V512.288H1383.28V530.396L1394.59 520.064H1397.75L1389.65 527.804L1398.51 539H1395.38L1387.75 529.496ZM1423.01 539.216C1421.57 539.216 1420.24 538.904 1419.01 538.28C1417.79 537.656 1416.79 536.768 1416.03 535.616L1417.61 533.816C1419 535.88 1420.81 536.912 1423.05 536.912C1426.17 536.912 1427.73 535.064 1427.73 531.368V516.104H1418.51V513.8H1430.35V531.26C1430.35 533.9 1429.73 535.892 1428.48 537.236C1427.26 538.556 1425.43 539.216 1423.01 539.216ZM1449.29 539.216C1447.42 539.216 1445.62 538.916 1443.89 538.316C1442.19 537.716 1440.87 536.924 1439.93 535.94L1440.98 533.888C1441.89 534.8 1443.1 535.544 1444.61 536.12C1446.12 536.672 1447.68 536.948 1449.29 536.948C1451.55 536.948 1453.24 536.54 1454.37 535.724C1455.5 534.884 1456.06 533.804 1456.06 532.484C1456.06 531.476 1455.75 530.672 1455.12 530.072C1454.52 529.472 1453.78 529.016 1452.89 528.704C1452 528.368 1450.77 528.008 1449.18 527.624C1447.29 527.144 1445.78 526.688 1444.65 526.256C1443.52 525.8 1442.55 525.116 1441.73 524.204C1440.94 523.292 1440.54 522.056 1440.54 520.496C1440.54 519.224 1440.88 518.072 1441.55 517.04C1442.22 515.984 1443.26 515.144 1444.65 514.52C1446.04 513.896 1447.77 513.584 1449.83 513.584C1451.27 513.584 1452.68 513.788 1454.04 514.196C1455.44 514.58 1456.64 515.12 1457.64 515.816L1456.74 517.94C1455.69 517.244 1454.56 516.728 1453.36 516.392C1452.16 516.032 1450.98 515.852 1449.83 515.852C1447.62 515.852 1445.96 516.284 1444.83 517.148C1443.72 517.988 1443.17 519.08 1443.17 520.424C1443.17 521.432 1443.47 522.248 1444.07 522.872C1444.7 523.472 1445.46 523.94 1446.38 524.276C1447.31 524.588 1448.56 524.936 1450.12 525.32C1451.97 525.776 1453.46 526.232 1454.58 526.688C1455.74 527.12 1456.71 527.792 1457.5 528.704C1458.29 529.592 1458.69 530.804 1458.69 532.34C1458.69 533.612 1458.34 534.776 1457.64 535.832C1456.97 536.864 1455.93 537.692 1454.51 538.316C1453.1 538.916 1451.36 539.216 1449.29 539.216ZM1481.91 513.8H1492.17C1494.84 513.8 1497.19 514.34 1499.23 515.42C1501.27 516.476 1502.85 517.964 1503.98 519.884C1505.11 521.78 1505.67 523.952 1505.67 526.4C1505.67 528.848 1505.11 531.032 1503.98 532.952C1502.85 534.848 1501.27 536.336 1499.23 537.416C1497.19 538.472 1494.84 539 1492.17 539H1481.91V513.8ZM1492.03 536.696C1494.24 536.696 1496.17 536.264 1497.83 535.4C1499.48 534.512 1500.77 533.3 1501.68 531.764C1502.59 530.204 1503.05 528.416 1503.05 526.4C1503.05 524.384 1502.59 522.608 1501.68 521.072C1500.77 519.512 1499.48 518.3 1497.83 517.436C1496.17 516.548 1494.24 516.104 1492.03 516.104H1484.58V536.696H1492.03ZM1531.6 530.324H1515.76C1515.91 532.292 1516.66 533.888 1518.03 535.112C1519.4 536.312 1521.13 536.912 1523.22 536.912C1524.39 536.912 1525.47 536.708 1526.46 536.3C1527.44 535.868 1528.29 535.244 1529.01 534.428L1530.45 536.084C1529.61 537.092 1528.56 537.86 1527.28 538.388C1526.04 538.916 1524.66 539.18 1523.14 539.18C1521.2 539.18 1519.47 538.772 1517.96 537.956C1516.47 537.116 1515.31 535.964 1514.47 534.5C1513.63 533.036 1513.21 531.38 1513.21 529.532C1513.21 527.684 1513.6 526.028 1514.4 524.564C1515.21 523.1 1516.32 521.96 1517.71 521.144C1519.12 520.328 1520.71 519.92 1522.46 519.92C1524.21 519.92 1525.78 520.328 1527.18 521.144C1528.57 521.96 1529.66 523.1 1530.45 524.564C1531.24 526.004 1531.64 527.66 1531.64 529.532L1531.6 530.324ZM1522.46 522.116C1520.64 522.116 1519.1 522.704 1517.85 523.88C1516.63 525.032 1515.93 526.544 1515.76 528.416H1529.19C1529.02 526.544 1528.32 525.032 1527.07 523.88C1525.84 522.704 1524.31 522.116 1522.46 522.116ZM1556.4 520.064L1547.98 539H1545.35L1536.96 520.064H1539.63L1546.72 536.192L1553.88 520.064H1556.4ZM1579.96 530.324H1564.12C1564.27 532.292 1565.02 533.888 1566.39 535.112C1567.76 536.312 1569.49 536.912 1571.58 536.912C1572.75 536.912 1573.83 536.708 1574.82 536.3C1575.8 535.868 1576.65 535.244 1577.37 534.428L1578.81 536.084C1577.97 537.092 1576.92 537.86 1575.64 538.388C1574.4 538.916 1573.02 539.18 1571.5 539.18C1569.56 539.18 1567.83 538.772 1566.32 537.956C1564.83 537.116 1563.67 535.964 1562.83 534.5C1561.99 533.036 1561.57 531.38 1561.57 529.532C1561.57 527.684 1561.96 526.028 1562.76 524.564C1563.57 523.1 1564.68 521.96 1566.07 521.144C1567.48 520.328 1569.07 519.92 1570.82 519.92C1572.57 519.92 1574.14 520.328 1575.54 521.144C1576.93 521.96 1578.02 523.1 1578.81 524.564C1579.6 526.004 1580 527.66 1580 529.532L1579.96 530.324ZM1570.82 522.116C1569 522.116 1567.46 522.704 1566.21 523.88C1564.99 525.032 1564.29 526.544 1564.12 528.416H1577.55C1577.38 526.544 1576.68 525.032 1575.43 523.88C1574.2 522.704 1572.67 522.116 1570.82 522.116ZM1589.2 512.288H1591.76V539H1589.2V512.288ZM1610.61 539.18C1608.79 539.18 1607.14 538.772 1605.68 537.956C1604.21 537.116 1603.06 535.964 1602.22 534.5C1601.38 533.036 1600.96 531.38 1600.96 529.532C1600.96 527.684 1601.38 526.028 1602.22 524.564C1603.06 523.1 1604.21 521.96 1605.68 521.144C1607.14 520.328 1608.79 519.92 1610.61 519.92C1612.43 519.92 1614.08 520.328 1615.54 521.144C1617.01 521.96 1618.15 523.1 1618.96 524.564C1619.8 526.028 1620.22 527.684 1620.22 529.532C1620.22 531.38 1619.8 533.036 1618.96 534.5C1618.15 535.964 1617.01 537.116 1615.54 537.956C1614.08 538.772 1612.43 539.18 1610.61 539.18ZM1610.61 536.912C1611.95 536.912 1613.15 536.612 1614.21 536.012C1615.29 535.388 1616.13 534.512 1616.73 533.384C1617.33 532.256 1617.63 530.972 1617.63 529.532C1617.63 528.092 1617.33 526.808 1616.73 525.68C1616.13 524.552 1615.29 523.688 1614.21 523.088C1613.15 522.464 1611.95 522.152 1610.61 522.152C1609.27 522.152 1608.05 522.464 1606.97 523.088C1605.92 523.688 1605.08 524.552 1604.45 525.68C1603.85 526.808 1603.55 528.092 1603.55 529.532C1603.55 530.972 1603.85 532.256 1604.45 533.384C1605.08 534.512 1605.92 535.388 1606.97 536.012C1608.05 536.612 1609.27 536.912 1610.61 536.912ZM1639.2 519.92C1640.97 519.92 1642.58 520.328 1644.02 521.144C1645.46 521.936 1646.59 523.064 1647.4 524.528C1648.22 525.992 1648.63 527.66 1648.63 529.532C1648.63 531.428 1648.22 533.108 1647.4 534.572C1646.59 536.036 1645.46 537.176 1644.02 537.992C1642.6 538.784 1641 539.18 1639.2 539.18C1637.66 539.18 1636.27 538.868 1635.02 538.244C1633.8 537.596 1632.79 536.66 1632 535.436V545.984H1629.44V520.064H1631.89V523.808C1632.66 522.56 1633.66 521.6 1634.91 520.928C1636.18 520.256 1637.61 519.92 1639.2 519.92ZM1639.02 536.912C1640.34 536.912 1641.54 536.612 1642.62 536.012C1643.7 535.388 1644.54 534.512 1645.14 533.384C1645.76 532.256 1646.07 530.972 1646.07 529.532C1646.07 528.092 1645.76 526.82 1645.14 525.716C1644.54 524.588 1643.7 523.712 1642.62 523.088C1641.54 522.464 1640.34 522.152 1639.02 522.152C1637.67 522.152 1636.46 522.464 1635.38 523.088C1634.32 523.712 1633.48 524.588 1632.86 525.716C1632.26 526.82 1631.96 528.092 1631.96 529.532C1631.96 530.972 1632.26 532.256 1632.86 533.384C1633.48 534.512 1634.32 535.388 1635.38 536.012C1636.46 536.612 1637.67 536.912 1639.02 536.912ZM1674.33 530.324H1658.49C1658.63 532.292 1659.39 533.888 1660.76 535.112C1662.12 536.312 1663.85 536.912 1665.94 536.912C1667.12 536.912 1668.2 536.708 1669.18 536.3C1670.16 535.868 1671.02 535.244 1671.74 534.428L1673.18 536.084C1672.34 537.092 1671.28 537.86 1670.01 538.388C1668.76 538.916 1667.38 539.18 1665.87 539.18C1663.92 539.18 1662.2 538.772 1660.68 537.956C1659.2 537.116 1658.03 535.964 1657.19 534.5C1656.35 533.036 1655.93 531.38 1655.93 529.532C1655.93 527.684 1656.33 526.028 1657.12 524.564C1657.94 523.1 1659.04 521.96 1660.43 521.144C1661.85 520.328 1663.43 519.92 1665.18 519.92C1666.94 519.92 1668.51 520.328 1669.9 521.144C1671.29 521.96 1672.38 523.1 1673.18 524.564C1673.97 526.004 1674.36 527.66 1674.36 529.532L1674.33 530.324ZM1665.18 522.116C1663.36 522.116 1661.82 522.704 1660.58 523.88C1659.35 525.032 1658.66 526.544 1658.49 528.416H1671.92C1671.75 526.544 1671.04 525.032 1669.79 523.88C1668.57 522.704 1667.03 522.116 1665.18 522.116ZM1686.01 523.772C1686.61 522.5 1687.5 521.54 1688.68 520.892C1689.88 520.244 1691.35 519.92 1693.11 519.92V522.404L1692.49 522.368C1690.5 522.368 1688.94 522.98 1687.81 524.204C1686.69 525.428 1686.12 527.144 1686.12 529.352V539H1683.57V520.064H1686.01V523.772ZM1715.98 512.288H1718.35V545.984H1715.98V512.288ZM1754.17 539.216C1750.9 539.216 1748.36 538.28 1746.54 536.408C1744.71 534.536 1743.8 531.812 1743.8 528.236V513.8H1746.46V528.128C1746.46 531.056 1747.12 533.24 1748.44 534.68C1749.76 536.12 1751.67 536.84 1754.17 536.84C1756.69 536.84 1758.61 536.12 1759.93 534.68C1761.25 533.24 1761.91 531.056 1761.91 528.128V513.8H1764.5V528.236C1764.5 531.812 1763.59 534.536 1761.76 536.408C1759.96 538.28 1757.43 539.216 1754.17 539.216ZM1776.53 513.8H1779.19V539H1776.53V513.8ZM1798.27 508.688H1800.61L1788.73 542.6H1786.39L1798.27 508.688ZM1817.6 539.216C1814.34 539.216 1811.79 538.28 1809.97 536.408C1808.15 534.536 1807.23 531.812 1807.23 528.236V513.8H1809.9V528.128C1809.9 531.056 1810.56 533.24 1811.88 534.68C1813.2 536.12 1815.11 536.84 1817.6 536.84C1820.12 536.84 1822.04 536.12 1823.36 534.68C1824.68 533.24 1825.34 531.056 1825.34 528.128V513.8H1827.93V528.236C1827.93 531.812 1827.02 534.536 1825.2 536.408C1823.4 538.28 1820.87 539.216 1817.6 539.216ZM1855.41 539L1847.28 527.912L1839.18 539H1836.12L1845.69 526.04L1836.73 513.8H1839.79L1847.39 524.096L1854.95 513.8H1857.83L1848.9 525.968L1858.51 539H1855.41ZM1880.66 513.8H1890.92C1893.58 513.8 1895.93 514.34 1897.97 515.42C1900.01 516.476 1901.6 517.964 1902.72 519.884C1903.85 521.78 1904.42 523.952 1904.42 526.4C1904.42 528.848 1903.85 531.032 1902.72 532.952C1901.6 534.848 1900.01 536.336 1897.97 537.416C1895.93 538.472 1893.58 539 1890.92 539H1880.66V513.8ZM1890.77 536.696C1892.98 536.696 1894.91 536.264 1896.57 535.4C1898.22 534.512 1899.51 533.3 1900.42 531.764C1901.33 530.204 1901.79 528.416 1901.79 526.4C1901.79 524.384 1901.33 522.608 1900.42 521.072C1899.51 519.512 1898.22 518.3 1896.57 517.436C1894.91 516.548 1892.98 516.104 1890.77 516.104H1883.32V536.696H1890.77ZM1930.35 530.324H1914.51C1914.65 532.292 1915.41 533.888 1916.77 535.112C1918.14 536.312 1919.87 536.912 1921.96 536.912C1923.13 536.912 1924.21 536.708 1925.2 536.3C1926.18 535.868 1927.03 535.244 1927.75 534.428L1929.19 536.084C1928.35 537.092 1927.3 537.86 1926.03 538.388C1924.78 538.916 1923.4 539.18 1921.89 539.18C1919.94 539.18 1918.21 538.772 1916.7 537.956C1915.21 537.116 1914.05 535.964 1913.21 534.5C1912.37 533.036 1911.95 531.38 1911.95 529.532C1911.95 527.684 1912.35 526.028 1913.14 524.564C1913.95 523.1 1915.06 521.96 1916.45 521.144C1917.87 520.328 1919.45 519.92 1921.2 519.92C1922.95 519.92 1924.53 520.328 1925.92 521.144C1927.31 521.96 1928.4 523.1 1929.19 524.564C1929.99 526.004 1930.38 527.66 1930.38 529.532L1930.35 530.324ZM1921.2 522.116C1919.38 522.116 1917.84 522.704 1916.59 523.88C1915.37 525.032 1914.67 526.544 1914.51 528.416H1927.93C1927.77 526.544 1927.06 525.032 1925.81 523.88C1924.59 522.704 1923.05 522.116 1921.2 522.116ZM1944.66 539.18C1943.13 539.18 1941.65 538.964 1940.23 538.532C1938.84 538.076 1937.75 537.512 1936.96 536.84L1938.11 534.824C1938.9 535.448 1939.9 535.964 1941.1 536.372C1942.3 536.756 1943.55 536.948 1944.84 536.948C1946.57 536.948 1947.84 536.684 1948.66 536.156C1949.5 535.604 1949.92 534.836 1949.92 533.852C1949.92 533.156 1949.69 532.616 1949.23 532.232C1948.78 531.824 1948.2 531.524 1947.51 531.332C1946.81 531.116 1945.89 530.912 1944.73 530.72C1943.2 530.432 1941.96 530.144 1941.03 529.856C1940.09 529.544 1939.29 529.028 1938.61 528.308C1937.97 527.588 1937.64 526.592 1937.64 525.32C1937.64 523.736 1938.3 522.44 1939.62 521.432C1940.94 520.424 1942.78 519.92 1945.13 519.92C1946.35 519.92 1947.58 520.088 1948.8 520.424C1950.03 520.736 1951.03 521.156 1951.83 521.684L1950.71 523.736C1949.15 522.656 1947.29 522.116 1945.13 522.116C1943.5 522.116 1942.26 522.404 1941.42 522.98C1940.61 523.556 1940.2 524.312 1940.2 525.248C1940.2 525.968 1940.43 526.544 1940.88 526.976C1941.36 527.408 1941.95 527.732 1942.65 527.948C1943.34 528.14 1944.3 528.344 1945.53 528.56C1947.04 528.848 1948.25 529.136 1949.16 529.424C1950.07 529.712 1950.85 530.204 1951.5 530.9C1952.15 531.596 1952.47 532.556 1952.47 533.78C1952.47 535.436 1951.78 536.756 1950.39 537.74C1949.02 538.7 1947.11 539.18 1944.66 539.18ZM1961.2 520.064H1963.75V539H1961.2V520.064ZM1962.49 515.924C1961.97 515.924 1961.52 515.744 1961.16 515.384C1960.8 515.024 1960.62 514.592 1960.62 514.088C1960.62 513.608 1960.8 513.188 1961.16 512.828C1961.52 512.468 1961.97 512.288 1962.49 512.288C1963.02 512.288 1963.47 512.468 1963.83 512.828C1964.19 513.164 1964.37 513.572 1964.37 514.052C1964.37 514.58 1964.19 515.024 1963.83 515.384C1963.47 515.744 1963.02 515.924 1962.49 515.924ZM1992.4 520.064V536.696C1992.4 539.912 1991.61 542.288 1990.02 543.824C1988.46 545.384 1986.1 546.164 1982.93 546.164C1981.18 546.164 1979.51 545.9 1977.93 545.372C1976.37 544.868 1975.09 544.16 1974.11 543.248L1975.41 541.304C1976.32 542.12 1977.42 542.756 1978.72 543.212C1980.04 543.668 1981.42 543.896 1982.86 543.896C1985.26 543.896 1987.02 543.332 1988.15 542.204C1989.28 541.1 1989.84 539.372 1989.84 537.02V534.608C1989.05 535.808 1988.01 536.72 1986.71 537.344C1985.44 537.968 1984.02 538.28 1982.46 538.28C1980.69 538.28 1979.07 537.896 1977.6 537.128C1976.16 536.336 1975.02 535.244 1974.18 533.852C1973.37 532.436 1972.96 530.84 1972.96 529.064C1972.96 527.288 1973.37 525.704 1974.18 524.312C1975.02 522.92 1976.16 521.84 1977.6 521.072C1979.04 520.304 1980.66 519.92 1982.46 519.92C1984.07 519.92 1985.52 520.244 1986.82 520.892C1988.11 521.54 1989.16 522.476 1989.95 523.7V520.064H1992.4ZM1982.71 536.012C1984.08 536.012 1985.32 535.724 1986.42 535.148C1987.53 534.548 1988.38 533.72 1988.98 532.664C1989.6 531.608 1989.91 530.408 1989.91 529.064C1989.91 527.72 1989.6 526.532 1988.98 525.5C1988.38 524.444 1987.53 523.628 1986.42 523.052C1985.34 522.452 1984.11 522.152 1982.71 522.152C1981.35 522.152 1980.11 522.44 1979.01 523.016C1977.93 523.592 1977.07 524.408 1976.45 525.464C1975.85 526.52 1975.55 527.72 1975.55 529.064C1975.55 530.408 1975.85 531.608 1976.45 532.664C1977.07 533.72 1977.93 534.548 1979.01 535.148C1980.11 535.724 1981.35 536.012 1982.71 536.012ZM2013.19 519.92C2015.57 519.92 2017.45 520.616 2018.85 522.008C2020.26 523.376 2020.97 525.38 2020.97 528.02V539H2018.41V528.272C2018.41 526.304 2017.92 524.804 2016.94 523.772C2015.95 522.74 2014.55 522.224 2012.73 522.224C2010.69 522.224 2009.07 522.836 2007.87 524.06C2006.69 525.26 2006.1 526.928 2006.1 529.064V539H2003.55V520.064H2005.99V523.556C2006.69 522.404 2007.65 521.516 2008.87 520.892C2010.12 520.244 2011.56 519.92 2013.19 519.92ZM2048.47 530.324H2032.63C2032.77 532.292 2033.53 533.888 2034.9 535.112C2036.26 536.312 2037.99 536.912 2040.08 536.912C2041.26 536.912 2042.34 536.708 2043.32 536.3C2044.3 535.868 2045.16 535.244 2045.88 534.428L2047.32 536.084C2046.48 537.092 2045.42 537.86 2044.15 538.388C2042.9 538.916 2041.52 539.18 2040.01 539.18C2038.06 539.18 2036.34 538.772 2034.82 537.956C2033.34 537.116 2032.17 535.964 2031.33 534.5C2030.49 533.036 2030.07 531.38 2030.07 529.532C2030.07 527.684 2030.47 526.028 2031.26 524.564C2032.08 523.1 2033.18 521.96 2034.57 521.144C2035.99 520.328 2037.57 519.92 2039.32 519.92C2041.08 519.92 2042.65 520.328 2044.04 521.144C2045.43 521.96 2046.52 523.1 2047.32 524.564C2048.11 526.004 2048.5 527.66 2048.5 529.532L2048.47 530.324ZM2039.32 522.116C2037.5 522.116 2035.96 522.704 2034.72 523.88C2033.49 525.032 2032.8 526.544 2032.63 528.416H2046.06C2045.89 526.544 2045.18 525.032 2043.93 523.88C2042.71 522.704 2041.17 522.116 2039.32 522.116ZM2060.15 523.772C2060.75 522.5 2061.64 521.54 2062.82 520.892C2064.02 520.244 2065.49 519.92 2067.25 519.92V522.404L2066.63 522.368C2064.64 522.368 2063.08 522.98 2061.95 524.204C2060.83 525.428 2060.26 527.144 2060.26 529.352V539H2057.71V520.064H2060.15V523.772Z" fill="#C7D4E7"/>
<circle cx="100.5" cy="145.5" r="350.5" fill="url(#paint0_linear)" stroke="url(#paint1_linear)" stroke-width="0.5"/>
<circle cx="84" cy="130" r="251" fill="url(#paint2_linear)" stroke="url(#paint3_linear)" stroke-width="0.5"/>
<circle cx="56" cy="112" r="152" fill="#141B20"/>
<circle cx="2766.79" cy="647.786" r="350.5" transform="rotate(152.863 2766.79 647.786)" fill="url(#paint4_linear)" stroke="url(#paint5_linear)" stroke-width="0.5"/>
<circle cx="2788.54" cy="654.054" r="251" transform="rotate(152.863 2788.54 654.054)" fill="url(#paint6_linear)" stroke="url(#paint7_linear)" stroke-width="0.5"/>
<circle cx="2821.67" cy="657.301" r="152" transform="rotate(152.863 2821.67 657.301)" fill="#141B20"/>
<g filter="url(#filter0_d)">
<path d="M990.784 539.586L1127.16 403.278L990.784 265.439V338.188L1031.99 379.39" stroke="url(#paint8_linear)" stroke-width="8"/>
</g>
<g filter="url(#filter1_d)">
<path d="M964.209 565.333L800 403.21L964.21 239" stroke="url(#paint9_linear)" stroke-width="8"/>
</g>
<path d="M848.707 401.818L962.819 287.706V342.675L903.676 401.818L962.819 459.57L1015.7 401.818L1045.62 432.434L962.819 515.93L848.707 401.818Z" fill="url(#paint10_linear)" stroke="url(#paint11_linear)" stroke-width="0.5"/>
<g opacity="0.59">
<circle cx="113" cy="681" r="29" fill="#106FB7" fill-opacity="0.74"/>
<circle cx="208" cy="619" r="35" fill="#1170B3" fill-opacity="0.79"/>
<circle cx="283.5" cy="687.5" r="18.5" fill="#1290E0"/>
</g>
<g opacity="0.59">
<circle cx="2633" cy="146" r="29" fill="#106FB7" fill-opacity="0.74"/>
<circle cx="2728" cy="84" r="35" fill="#1170B3" fill-opacity="0.79"/>
<circle cx="2803.5" cy="152.5" r="18.5" fill="#1290E0"/>
</g>
</g>
<defs>
<filter id="filter0_d" x="980.784" y="249.709" width="158.02" height="298.707" filterUnits="userSpaceOnUse" color-interpolation-filters="sRGB">
<feFlood flood-opacity="0" result="BackgroundImageFix"/>
<feColorMatrix in="SourceAlpha" type="matrix" values="0 0 0 0 0 0 0 0 0 0 0 0 0 0 0 0 0 0 127 0" result="hardAlpha"/>
<feOffset/>
<feGaussianBlur stdDeviation="3"/>
<feComposite in2="hardAlpha" operator="out"/>
<feColorMatrix type="matrix" values="0 0 0 0 0.0588235 0 0 0 0 0.427451 0 0 0 0 0.733333 0 0 0 1 0"/>
<feBlend mode="normal" in2="BackgroundImageFix" result="effect1_dropShadow"/>
<feBlend mode="normal" in="SourceGraphic" in2="effect1_dropShadow" result="shape"/>
</filter>
<filter id="filter1_d" x="788.325" y="230.171" width="184.714" height="344.008" filterUnits="userSpaceOnUse" color-interpolation-filters="sRGB">
<feFlood flood-opacity="0" result="BackgroundImageFix"/>
<feColorMatrix in="SourceAlpha" type="matrix" values="0 0 0 0 0 0 0 0 0 0 0 0 0 0 0 0 0 0 127 0" result="hardAlpha"/>
<feOffset/>
<feGaussianBlur stdDeviation="3"/>
<feComposite in2="hardAlpha" operator="out"/>
<feColorMatrix type="matrix" values="0 0 0 0 0.0588235 0 0 0 0 0.427451 0 0 0 0 0.733333 0 0 0 1 0"/>
<feBlend mode="normal" in2="BackgroundImageFix" result="effect1_dropShadow"/>
<feBlend mode="normal" in="SourceGraphic" in2="effect1_dropShadow" result="shape"/>
</filter>
<linearGradient id="paint0_linear" x1="101.196" y1="-112.658" x2="97.9118" y2="496.006" gradientUnits="userSpaceOnUse">
<stop stop-color="#045CE0"/>
<stop offset="1" stop-color="#14AAFF" stop-opacity="0.58"/>
</linearGradient>
<linearGradient id="paint1_linear" x1="96.7844" y1="-205" x2="96.7844" y2="496" gradientUnits="userSpaceOnUse">
<stop stop-color="#F1F1F1"/>
<stop offset="1" stop-color="#00C2FF" stop-opacity="0.71"/>
</linearGradient>
<linearGradient id="paint2_linear" x1="84.4982" y1="-54.8724" x2="82.1466" y2="381.004" gradientUnits="userSpaceOnUse">
<stop stop-color="#045CE0"/>
<stop offset="1" stop-color="#14AAFF" stop-opacity="0.58"/>
</linearGradient>
<linearGradient id="paint3_linear" x1="81.3392" y1="-121" x2="81.3392" y2="381" gradientUnits="userSpaceOnUse">
<stop stop-color="#F1F1F1"/>
<stop offset="1" stop-color="#00C2FF" stop-opacity="0.71"/>
</linearGradient>
<linearGradient id="paint4_linear" x1="2767.48" y1="389.628" x2="2764.2" y2="998.292" gradientUnits="userSpaceOnUse">
<stop stop-color="#045CE0"/>
<stop offset="1" stop-color="#14AAFF" stop-opacity="0.58"/>
</linearGradient>
<linearGradient id="paint5_linear" x1="2763.07" y1="297.286" x2="2763.07" y2="998.286" gradientUnits="userSpaceOnUse">
<stop stop-color="#F1F1F1"/>
<stop offset="1" stop-color="#00C2FF" stop-opacity="0.71"/>
</linearGradient>
<linearGradient id="paint6_linear" x1="2789.04" y1="469.182" x2="2786.69" y2="905.058" gradientUnits="userSpaceOnUse">
<stop stop-color="#045CE0"/>
<stop offset="1" stop-color="#14AAFF" stop-opacity="0.58"/>
</linearGradient>
<linearGradient id="paint7_linear" x1="2785.88" y1="403.054" x2="2785.88" y2="905.054" gradientUnits="userSpaceOnUse">
<stop stop-color="#F1F1F1"/>
<stop offset="1" stop-color="#00C2FF" stop-opacity="0.71"/>
</linearGradient>
<linearGradient id="paint8_linear" x1="1009.17" y1="277.691" x2="1009.17" y2="528.866" gradientUnits="userSpaceOnUse">
<stop stop-color="#0457D2"/>
<stop offset="1" stop-color="#0E6CBC"/>
</linearGradient>
<linearGradient id="paint9_linear" x1="1012.14" y1="544.737" x2="1012.14" y2="261.684" gradientUnits="userSpaceOnUse">
<stop stop-color="#0457D2"/>
<stop offset="1" stop-color="#0E6CBC"/>
</linearGradient>
<linearGradient id="paint10_linear" x1="947.359" y1="317.77" x2="946.12" y2="515.93" gradientUnits="userSpaceOnUse">
<stop stop-color="#045CE0"/>
<stop offset="1" stop-color="#14AAFF" stop-opacity="0.58"/>
</linearGradient>
<linearGradient id="paint11_linear" x1="946.12" y1="287.706" x2="946.12" y2="515.93" gradientUnits="userSpaceOnUse">
<stop stop-color="#8EFFFF"/>
<stop offset="1" stop-color="#00C2FF" stop-opacity="0.71"/>
</linearGradient>
<clipPath id="clip0">
<rect width="2880" height="766" fill="white"/>
</clipPath>
</defs>
</svg>
